<?xml version="1.0" encoding="utf-8"?>
<!-- Generator: Adobe Illustrator 19.2.1, SVG Export Plug-In . SVG Version: 6.00 Build 0)  -->
<svg version="1.1" id="Capa_1" xmlns="http://www.w3.org/2000/svg" xmlns:xlink="http://www.w3.org/1999/xlink" x="0px" y="0px"
	 viewBox="0 0 552 752.9" style="enable-background:new 0 0 552 752.9;" xml:space="preserve">
<style type="text/css">
	.st0{fill:#FFFFFF;}
	.st1{fill:#DD971A;}
	.st2{fill:#00723F;}
	.st3{fill:#20419A;}
</style>
<g>
	<path class="st0" d="M537,159.5V0H276H15v159.5C4.5,182.8,0,202.7,0,227.1c0,43.2,28.2,54.7,15.6,86.7C6.1,338-0.5,365,0.1,389.9
		c0.4,17.8,2.6,35.1,5.5,50.2l0,0C8.8,457,8,467.7,5.6,475c-5.6,16.9,0.8,32,8.3,40c9.9,10.4,24,9.2,30.8,21.2
		c4.6,8.2,3.6,16.2,3.6,28.3c-0.1,71.1,33.3,151.8,149.3,163c25.6,19.4,56.4,25.4,78.4,25.4c22,0,52.9-6,78.4-25.4
		c116-11.3,149.4-91.9,149.3-163c0-12.1-1.1-20.1,3.6-28.3c6.8-12,20.9-10.8,30.8-21.2c7.6-8,14-23,8.3-40
		c-2.4-7.2-3.1-17.9,0.1-34.8l0,0c2.9-15.1,5.1-32.4,5.5-50.2c0.5-25-6-51.9-15.6-76.2c-12.6-32,15.6-43.4,15.6-86.7
		C552,202.7,547.4,182.8,537,159.5z M520.8,389.1c-0.6,29.7-7.1,60.2-13.5,77.5c5.4,4.2,8.3,10.3,9.5,15l0,0c0.3,1,0.4,2.2,0.5,3.6
		c0.2,4-2.3,9.1-4.8,10.6c-0.9,0.6-1.8,0.1-2.1-0.4c-3.9-7.1-10.2-11.5-14.9-13.1c-15.1,6.7-23.2,19.5-22.4,40.8
		c2.9,84.9-1.3,111-47.8,146.4c-16.1,12.2-53.8,28.3-85.8,24.7c0,2.6-1.2,5.4-3.9,7.4c-13.1,9.3-34.4,17.9-59.6,17.9h0
		c-25.3,0-46.5-8.6-59.6-17.9c-2.8-2-3.9-4.7-3.9-7.4c-32,3.6-69.7-12.5-85.8-24.7C80.1,634.1,75.9,608,78.8,523.1
		c0.7-21.3-7.4-34.1-22.4-40.8c-4.6,1.6-11,6.1-14.9,13.1c-0.2,0.5-1.2,1-2.1,0.4c-2.4-1.6-5-6.6-4.8-10.6c0-1.3,0.2-2.5,0.5-3.6
		l0,0c1.2-4.7,4.1-10.7,9.5-15c-6.4-17.4-12.8-47.9-13.5-77.5c-0.6-27.4,8.8-53.4,18.7-75.6c0.3-0.7,0.6-1.4,1-2.1
		c0.6-1.4,1.3-2.8,1.9-4.2c0.3-0.7,0.6-1.4,1-2.1c9.2-19.7,17.7-35.7,17.7-45.9c0-11.7-10.4-17.5-13.5-17.8
		c-8.5-0.9-18.7,3.4-20.5,11.9c-0.4,1.9-3.6,2.3-4.3,0.4c-3.8-10.1-2.6-25.9,7.2-35.3c-6.9-13.4-6.1-25.1-1.9-33.4
		c1.4-3,4-5.4,7.3-6.5V33.5h460.6v145.1c3.3,1.2,5.9,3.5,7.3,6.5c4.3,8.2,5.1,19.9-1.9,33.4c9.8,9.4,11,25.2,7.2,35.3
		c-0.7,1.9-3.9,1.4-4.3-0.4c-1.8-8.4-12-12.8-20.5-11.9c-3.2,0.3-13.5,6-13.5,17.8C480.6,281.7,522,332.6,520.8,389.1z"/>
	<ellipse class="st0" cx="57.6" cy="406.8" rx="3.5" ry="3.5"/>
	<path class="st0" d="M333.9,366.2c0.7,1.9,4.9,0.3,4.4-1.4c0,0-9.5-31.7-19.5-65.3c-1.6,2.7-3.5,5.3-5.5,7.8
		C324.1,338.3,333.9,366.2,333.9,366.2z"/>
	<path class="st0" d="M111.7,78.1c0-1.8-0.7-2.9-2.1-2.9h-1.2V81h1.2C111,81,111.7,79.8,111.7,78.1z"/>
	<polygon class="st0" points="206.9,76 205.5,84.6 208.3,84.6 	"/>
	<path class="st0" d="M46.5,450.2l20.5-16l-1.8-3.1c-1.1-2-0.5-4.5,1.3-5.8l6.2-4.6c1.9-1.4,4.7-1,6.5,1c2.2,2.5,4.8,7.5,5.9,10.5
		c0.7,2.1,0.2,4-1.3,5.2l-9.9,8.1l8.5,12.3c7.9-10.6,12.6-23.6,12.6-36.3l0-27.3c0-12.4-16.5-21.4-23.1-24.4
		c-6.2,3-13,8.5-19.3,14.2c-0.9,0.6-1.8-0.9-1.2-1.4c5.2-6.3,11.1-11.8,17.7-17.2c1-0.8,2.1-1.2,3.3-0.6
		c12.2,5.4,18.9,10.9,22.5,15.6l0-98.7c0-45-28.4-71.8-47.4-78.8c-3.1-1.1-5.4-2.7-7-4.5c0,1.2,0.1,2.3,0.2,3.5
		c4.3,4.3,16.4,8.5,21.6,12.8c1,0.8,0.2,2.5-1.2,1.5c-3.7-2.5-13.2-5.5-19.4-8.9c0.2,1,0.5,2.1,0.8,3.1c5.6,2.8,17.8,7.6,22.2,11.2
		c1.2,1,0.1,2.4-0.9,1.8c-5.7-3.4-14.4-5.9-19.6-7.7c0.3,0.8,0.6,1.7,0.9,2.5c0.2,0.7,0.1,1.4-0.4,1.9c-1.1,1.1-2,2.5-2.9,4
		c4.8-0.5,12.4-0.3,21.5,2.4c1.1,0.3,0.7,2.2-0.4,2c-10.7-2.4-19.4-1-23.4,0c-0.7,1.6-1.3,3.4-1.8,5.1c6.7-3,16.6-3,22.3-1.9
		c1.2,0.2,1.1,2.1-0.2,2c-8.7-1-18.2,1-23.1,5.1c-0.3,2.1-0.4,4.2-0.2,6.1c4.9-6.3,13.6-8.8,21.7-7.9c8.5,0.9,17.6,9.9,17.6,22.3
		c0.1,26.2-39,77-39,129.8C36.9,409.2,42.7,436,46.5,450.2z M69.2,300.2c0.6-2,2.8-2.1,3.9-0.7c12.1,14.6,16.7,38.3,9.9,60.1
		c-0.3,1-2.2,0.8-1.9-0.8c1.8-9.2,1.9-18.4,0.5-27.1c-1.9,5.4-3.5,11.4-4.2,17.8c-0.1,1.2-2,1.1-1.9-0.2c0.6-8.5,2.8-17.2,4.9-23.7
		c-0.7-2.9-1.7-5.8-2.8-8.5c-3.3,10.1-6.1,22.4-6.4,31c0,1.3-2,1.3-2,0.1c0-9.5,2.1-25.4,5.9-36.5c-0.9-1.8-1.9-3.6-3-5.2
		c-4.9,14.7-8.3,32.4-9.6,47.9c-0.1,1.2-1.9,1.2-1.9-0.1C61.2,338.4,63.8,317.9,69.2,300.2z M57.6,398.7c4.5,0,8.1,3.6,8.1,8.1
		c0,4.5-3.6,8.1-8.1,8.1c-4.5,0-8.1-3.6-8.1-8.1C49.5,402.3,53.1,398.7,57.6,398.7z"/>
	<path class="st0" d="M182.5,75.2h-1.2V81h1.2c1.4,0,2.1-1.2,2.1-2.9C184.7,76.3,183.9,75.2,182.5,75.2z"/>
	<polygon class="st0" points="165.2,76 163.8,84.6 166.6,84.6 	"/>
	<polygon class="st0" points="284.3,212.5 283.7,216.8 287.8,215.9 290.6,219.6 293.1,215.8 297.5,216.8 297,212.1 300.4,209.8 
		297,207.2 297.5,202.9 293.4,203.5 290.6,200 288,203.6 283.7,202.9 284.3,207.3 280.8,209.8 	"/>
	<path class="st0" d="M120.8,81.7c0,3.8,0.6,6.8,2.3,6.8c1.7,0,2.3-3,2.3-6.8c0-3.9-0.6-6.8-2.3-6.8
		C121.4,74.9,120.8,77.8,120.8,81.7z"/>
	<path class="st0" d="M48.7,457.9l30.9-24.6c-0.6-1.8-2.9-6.4-4.4-8.2l-5.7,4l3.4,6.3L47.8,455C48.1,456.2,48.4,457.2,48.7,457.9z"
		/>
	<path class="st0" d="M136.5,75.2h-1.2V81h1.2c1.4,0,2.1-1.2,2.1-2.9C138.7,76.3,137.9,75.2,136.5,75.2z"/>
	<path class="st0" d="M232.3,651.2l-24.8,18.7c1.9,3.4,7.2,12.9,9,16.1c4.9-5.3,18.4-19.9,22-23.7L232.3,651.2z"/>
	<path class="st0" d="M441.6,75.2h-1.2V81h1.2c1.4,0,2.1-1.2,2.1-2.9C443.8,76.3,443,75.2,441.6,75.2z"/>
	<path class="st0" d="M213.7,364.8c-0.5,1.7,3.7,3.4,4.4,1.4c0,0,9.8-27.9,20.6-58.8c-2-2.5-3.9-5.2-5.5-7.8
		C223.1,333.1,213.7,364.8,213.7,364.8z"/>
	<path class="st0" d="M311.4,75.2V81h1.2c1.4,0,2.1-1.2,2.1-2.9c0-1.8-0.7-2.9-2.1-2.9H311.4z"/>
	<path class="st0" d="M457.7,213.2c-0.2,2.1-0.3,5.5-0.3,8.2c2-4.2,10-14.6,12-19.6c2.1-5.2,2.5-8.6,2.6-15.8
		c-1.6,3.7-8.3,10.8-9.8,12.9C459.6,202.6,458.2,206.2,457.7,213.2z"/>
	<path class="st0" d="M377.4,88.2h1.2c1.9,0,2.8-2.3,2.8-6.5c0-4.3-0.9-6.5-2.8-6.5h-1.2V88.2z"/>
	<path class="st0" d="M80,186.1c0.1,7.2,0.4,10.6,2.6,15.8c2,5,10,15.4,12,19.6c0-2.7-0.1-6.2-0.3-8.2c-0.6-7-1.9-10.6-4.5-14.3
		C88.3,196.8,81.6,189.8,80,186.1z"/>
	<polygon class="st0" points="361.2,76 359.8,84.6 362.6,84.6 	"/>
	<path class="st0" d="M156,627.2l-20.7,8.5c-1.4,5.3-2.7,30.3,8.5,36.8c17,9.3,40.9,17.4,67.9,15.6c-0.3-0.4-5.7-10.9-8-15.3
		l-3.1,2.3c-1.5,1.1-3.5,1.1-5.4-0.1c-2.6-1.8-6-6-7.8-8.8c-1.5-2.2-1.1-5,0.8-6.5l6.1-4.8c1.8-1.4,4.3-1.3,6,0.3l2.5,2.6l15.7-11.7
		c-35-12.1-64.9-33.5-86.8-62.4C107.7,552,95,514.3,95,474.4l0-27.6c-0.7,1.7-1.5,3.3-2.4,4.9c-1.5,5.3-1.8,22.7-1.1,26l0,0
		c0.2,1.5-1.7,1.7-2,0.4c-1-4.2-1.6-12.5-1.5-19.4c-1.1,1.4-2.2,2.8-3.5,4.2c0.1,5.3,1.2,13.5,2.9,20.7c0.3,1.2-1.5,1.6-1.9,0.5
		c-1.5-3.8-3.3-10.9-4.5-17.4c-1.2,1.2-2.4,2.4-3.7,3.6c-2.2-0.7-4.3-1.3-6.2-1.8c4.6,4.1,9.4,10.6,12,16.6c0.5,1.2-1.2,1.9-1.8,0.9
		c-4.3-7.9-11.4-14.9-18.9-18.6c-2.6,0-4.9,0.2-6.9,0.7c6.9,2.1,16.3,9.3,21.8,16.7c0.6,0.8-0.7,2.2-1.5,1.3
		c-8.1-9.9-19.8-15.1-26.9-15.3c-1.8,1.1-3.3,2.4-4.5,3.8c3.6-0.2,7.7,0.7,11.6,2.3c14.8,6.1,29.3,18.5,27.9,46
		c-2.7,75,0.5,107.6,46.5,141c0.4,0.3,0.8,0.6,1.2,0.8c-2.8-8.5-3.3-22.9-0.8-32c0.2-0.4,1.1-1.5,1.6-1.6c5.8-1.5,23.1-5.8,23.1-5.8
		C156.4,625.2,157,626.8,156,627.2z M133.4,610.6c-7.3-5.8-21.8-21.7-28.2-33.6c-0.4,1.8-0.7,3.7-0.9,5.5
		c5.8,9.2,14.8,21.1,19.4,26.3c0.7,0.8-0.6,2.2-1.4,1.3c-6.9-7.4-12.4-14.1-18.4-21.9c-0.1,2.1-0.1,4.1,0.1,6.1
		c5.4,9,10.1,14.1,15,19.6c0.7,0.8-0.6,2.1-1.4,1.3c-3.3-3-8.2-7.9-12.4-12.8c2.2,10,7.3,18.3,14.5,23.6c1.2,0.9-0.1,2.6-1.4,1.7
		c-15.9-11.2-24.9-34.1-16.9-60.2c1.2-4,5.1-3.2,6.4,0c5.7,14.6,18.3,32,27.3,41.2C136,609.9,134.6,611.6,133.4,610.6z M173.5,637.4
		c4.5,0,8.1,3.6,8.1,8.1c0,4.5-3.6,8.1-8.1,8.1s-8.1-3.6-8.1-8.1C165.4,641.1,169,637.4,173.5,637.4z"/>
	<polygon class="st0" points="247.8,76 246.4,84.6 249.1,84.6 	"/>
	<path class="st0" d="M40,482.4c-1.2,2.1-1.6,5.2-0.2,7.5c0.3-0.4,0.7-0.8,1.1-1.2c3.3-3.7,7.3-6.3,12.3-7.7
		C47,478.8,41.3,480.1,40,482.4z"/>
	<circle class="st0" cx="173.5" cy="645.5" r="3.5"/>
	<path class="st0" d="M76.1,465c1.2-1.1,2.2-2.3,3.3-3.5l-9.1-13.1l-18.5,14.2C57.7,461.1,66.6,461.4,76.1,465z"/>
	<path class="st0" d="M280.3,88.5c1.7,0,2.3-3,2.3-6.8c0-3.9-0.6-6.8-2.3-6.8c-1.8,0-2.3,2.9-2.3,6.8
		C277.9,85.5,278.5,88.5,280.3,88.5z"/>
	<path class="st0" d="M197.2,658.8l-5.3,4.5c1.4,1.9,4.4,5.3,6,6.8l29.1-21.3c-1.1-0.3-2.5-0.7-3.4-1l-21.6,15.9L197.2,658.8z"/>
	<path class="st0" d="M276,572.4c54.1,0,98-43.9,98-98V170.6H178v303.8C178,528.5,221.9,572.4,276,572.4z M344.6,180.4h19.6v25.8
		c-6.5-2.5-17-6.6-21.8-8.5C343.8,192.2,344.6,186.4,344.6,180.4z M315.1,209.8c0,13.5-11,24.5-24.5,24.5c-13.5,0-24.5-11-24.5-24.5
		s11-24.5,24.5-24.5C304.1,185.3,315.1,196.3,315.1,209.8z M222.4,193.5c1-1.1,7.6-6.8,13.5-7.6c8.4-1,10.1,1.1,15.7,0.9
		c6.6-0.2,16.4-5.7,27.5-3.5c0.7,0.1,0.6,1.2,0,1.2c-16,1.4-23.7,14.4-23.7,25.2c0,10.1,6.9,23.6,23.6,25.3c0.7,0.1,0.8,1,0.1,1.2
		c-13.7,2.7-27.5-7.2-31.2-10.6c-2-1.8-5-2.3-6.1-1.9c-0.4,0.1-0.8-0.6-0.3-0.9c2.3-1.8,5.9-0.7,6.8-0.7c0.9,0,1.4-2.1,0.8-2.8
		c-0.7-0.8-3-2.2-6.5-2.7c-2.2-0.3-4.6-0.1-5.7,0.5c-0.5,0.3-0.9-0.4-0.5-0.8c2.6-2.7,6.1-2.8,9.8-2.1c1.7,0.4,1.7-2.4,0.8-3.2
		c-1-0.9-3.9-2.7-7.2-3c-3-0.2-6.1,0.5-7.6,1.6c-0.4,0.3-1.1-0.4-0.9-0.8c0.6-1,4.2-3.4,7.2-3.8c3.1-0.4,6.4,0.3,8,0.7
		c1.5,0.3,1.9-2.6,0.4-3.6c-2.3-1.6-5.7-3.2-11.3-2.8c-3.6,0.3-6.1,1.8-8,3.4c-0.5,0.4-1.4-0.5-1-1c1.2-1.2,5.9-5.6,11.3-6.1
		c3.7-0.3,9.2,1.3,11.2,1.6c2.1,0.3,2.5-3.2,1.1-4c-2.4-1.4-9.2-4.2-15.2-3.5c-6,0.7-10.2,3.5-11.8,4.4
		C222.8,194.7,222,193.9,222.4,193.5z M187.8,180.4h19.6c0,6,0.8,11.8,2.2,17.4c-4.9,1.9-15.3,5.9-21.8,8.5V180.4z M187.8,306.3
		c5.6-7.2,16.2-20.9,27.8-35.9c-1.5-2.6-2.9-5.3-4.2-7.9c-9.1,13.4-17.7,26.1-23.6,34.8v-49.6c3.2-2.1,7.7-5.1,12.6-8.4
		c-0.8-1.8-1.6-3.9-2.3-6.3c-3.8,3-7.4,5.8-10.3,8.2v-29.4c6.5-1.7,18.8-4.9,24.3-6.4c1.6,4.2,3.6,8.1,6,11.8
		c-2.4,1.9-5.2,4.1-8.1,6.4c0.3,0.5,0.6,1,0.9,1.5c0.6,1,2.1,2.9,3,5.2c3.4-2.2,6.6-4.4,9.3-6.2c2.6,3.1,5.4,6,8.5,8.6
		c-3.5,5.2-7.2,10.7-11,16.2c2,1.8,4.3,3.7,6.7,6.4c4.3-5.6,8.6-11.1,12.7-16.4c3.1,1.9,6.4,3.6,9.9,5c-2.7,8.9-5.9,19.7-9.4,31.3
		c1.8,1.8,4.5,3.9,7.2,6.6c4.5-12.8,8.7-24.9,12.1-34.6c5.2,1.2,10.6,1.9,16.1,1.9c5.6,0,11-0.7,16.2-1.9
		c3.4,9.7,7.6,21.8,12.1,34.6c2.7-2.6,5.4-4.8,7.2-6.6c-3.5-11.5-6.7-22.4-9.4-31.2c3.4-1.4,6.7-3.1,9.9-5
		c4.1,5.3,8.4,10.8,12.7,16.4c2.5-2.7,4.7-4.6,6.7-6.4c-3.7-5.5-7.4-11-11-16.2c3.1-2.6,5.9-5.5,8.4-8.5c2.7,1.8,5.9,3.9,9.3,6.2
		c0.9-2.3,2.4-4.2,3-5.1c0.3-0.5,0.6-1,0.9-1.6c-2.9-2.3-5.7-4.5-8.1-6.4c2.4-3.7,4.4-7.7,6-11.8c5.4,1.4,17.8,4.7,24.3,6.4v29.4
		c-2.9-2.3-6.5-5.2-10.3-8.1c-0.7,2.4-1.5,4.5-2.3,6.3c4.9,3.3,9.4,6.2,12.6,8.4v49.5c-5.9-8.7-14.5-21.4-23.6-34.8
		c-1.3,2.7-2.7,5.3-4.2,7.9c11.6,15,22.2,28.6,27.8,35.8v168.3c0,48.7-39.5,88.2-88.2,88.2c-48.7,0-88.2-39.5-88.2-88.2V306.3z"/>
	<path class="st0" d="M476.8,425.2c-1.5,1.8-3.8,6.4-4.4,8.2l30.9,24.6c0.3-0.8,0.6-1.8,0.9-3l-25.1-19.6l3.4-6.3L476.8,425.2z"/>
	<path class="st0" d="M495.9,477c3.9-1.6,8-2.5,11.6-2.3c-1.3-1.4-2.8-2.7-4.5-3.8c-7.1,0.2-18.7,5.4-26.9,15.3
		c-0.9,0.9-2.2-0.5-1.5-1.3c5.5-7.4,14.9-14.7,21.8-16.7c-2.1-0.5-4.4-0.8-6.9-0.7c-7.5,3.7-14.6,10.7-18.9,18.6
		c-0.6,1-2.3,0.3-1.8-0.9c2.6-6,7.5-12.5,12-16.6c-2,0.4-4,1-6.2,1.8c-1.3-1.2-2.5-2.4-3.7-3.6c-1.2,6.6-3,13.6-4.5,17.4
		c-0.4,1.1-2.2,0.8-2-0.5c1.7-7.3,2.8-15.4,2.9-20.7c-1.2-1.4-2.4-2.8-3.5-4.2c0.1,6.9-0.5,15.2-1.5,19.4c-0.3,1.3-2.1,1.1-2-0.4
		l0,0c0.7-3.2,0.4-20.7-1.1-26c-0.9-1.6-1.7-3.2-2.4-4.9l0,27.6c0,39.9-12.7,77.6-36.6,109.2c-21.9,28.9-51.8,50.3-86.8,62.4
		l15.7,11.7l2.5-2.6c1.6-1.6,4.2-1.7,6-0.3l6.1,4.8c1.8,1.5,2.2,4.3,0.8,6.5c-1.9,2.8-5.3,7-7.8,8.8c-1.8,1.2-3.8,1.2-5.4,0.1
		l-3.1-2.3c-2.3,4.4-7.7,14.8-8,15.3c27,1.8,50.9-6.3,67.9-15.6c11.2-6.6,9.9-31.5,8.5-36.8l-20.7-8.5c-1-0.4-0.4-1.9,0.6-1.7
		c0,0,17.3,4.4,23.1,5.8c0.5,0.1,1.5,1.2,1.6,1.6h0c2.5,9.1,2,23.5-0.8,32c0.4-0.3,0.8-0.6,1.2-0.8c46-33.5,49.2-66,46.5-141
		C466.6,495.5,481.1,483.1,495.9,477z M378.5,653.6c-4.5,0-8.1-3.6-8.1-8.1c0-4.5,3.6-8.1,8.1-8.1s8.1,3.6,8.1,8.1
		C386.6,650,382.9,653.6,378.5,653.6z M433.9,627.7c-1.3,0.9-2.5-0.9-1.4-1.7c7.2-5.3,12.2-13.6,14.5-23.6c-4.2,4.9-9,9.8-12.4,12.8
		c-0.9,0.8-2.2-0.5-1.4-1.3c4.9-5.5,9.5-10.6,15-19.6c0.1-2,0.2-4,0.1-6.1c-6,7.8-11.5,14.5-18.4,21.9c-0.8,0.9-2.2-0.5-1.4-1.3
		c4.6-5.2,13.6-17.1,19.4-26.3c-0.2-1.8-0.5-3.6-0.9-5.5c-6.4,11.9-20.9,27.8-28.2,33.6c-1.2,1-2.6-0.8-1.4-1.9
		c9-9.3,21.6-26.6,27.3-41.2c1.3-3.2,5.2-4,6.4,0C458.7,593.6,449.8,616.5,433.9,627.7z"/>
	<path class="st0" d="M319.6,651.2l-6.1,11c3.6,3.9,17.1,18.5,22,23.7c1.8-3.2,7.1-12.6,9-16.1L319.6,651.2z"/>
	<circle class="st0" cx="378.5" cy="645.5" r="3.5"/>
	<path class="st0" d="M360,663.2l-5.3-4.5l-4.8,4.8l-21.6-15.9c-1,0.3-2.4,0.7-3.4,1L354,670C355.7,668.5,358.7,665.1,360,663.2z"/>
	<path class="st0" d="M309.1,662.8l5.6-11.5c-5.7,1.2-13.4,2.5-18.3,3l-1.4,4.7c-0.2,0.5,0.3,1.1,0.8,1c1.2-0.1,2.4-0.3,3.4-0.4
		c0.4-0.1,0.7-0.3,0.9-0.7l0.9-2.5c0.4-0.8,2.2-0.7,2.2,0.4l0,4.6c0,1.3-1,2.3-2.2,2.5l-6.8,0.8c-3.2,0.4-4.9-2.4-4-5.4l2-6.6
		c0.5-1.6,1.8-2.7,3.5-2.8c6.6-0.6,19.9-3.1,24.1-4.3c79.4-21.7,132.7-90.5,132.7-171.1l0-52.2c0-0.3,0-0.6,0-1h0l0-139.5
		c0-42.3,25.4-73.8,50.4-83c6.2-2.3,7.7-6.5,7.2-9.8c0,0,0-0.1,0-0.1c-0.2-0.6-0.4-1.3-0.6-1.9c-0.7-1.5-2-2.8-3.7-3.7
		c-0.5,3.5-1.4,10.3-1.4,10.3c-0.1,0.8-0.9,1.4-1.7,1.3c-0.7-0.1-1.3-0.7-1.3-1.4v-15.1v-0.5h0V38.4H50.6v139.4h0v0.5v15.1
		c0,0.7-0.6,1.3-1.3,1.4c-0.8,0.1-1.6-0.5-1.7-1.3c0,0-0.9-6.7-1.4-10.3c-1.7,0.9-3,2.2-3.7,3.7c-0.2,0.6-0.5,1.3-0.7,1.9
		c0,0,0,0.1,0,0.1c-0.6,3.2,1,7.5,7.2,9.8c25.1,9.2,50.4,40.7,50.4,83l0,139.5h0c0,0.3,0,0.6,0,1l0,52.2
		c0,80.6,53.3,149.4,132.7,171.1c4.2,1.2,17.4,3.7,24.1,4.3c1.6,0.1,3,1.2,3.5,2.8l2,6.6c0.9,3-0.8,5.9-4,5.4l-6.8-0.8
		c-1.3-0.2-2.2-1.2-2.2-2.5l0-4.6c0-1.1,1.8-1.2,2.2-0.4l0.9,2.5c0.1,0.4,0.5,0.6,0.9,0.7c1,0.1,2.1,0.3,3.4,0.4
		c0.6,0.1,1-0.5,0.8-1l-1.4-4.7c-4.9-0.4-12.6-1.8-18.3-3l5.6,11.5c0,0-22.9,26.8-23.3,27.4c-1.9,2.8-1.8,5.6,0,6.8
		c1.1,0.7,2.3,1.4,3.6,2.2c0.1,0,0.1,0.1,0.2,0.1c3.1,1.7,5.8-0.4,7.9-2.9l15-18.6c1.3-1.5,4.1,0.3,3.2,2.1l-11,20.1
		c0,0.1,0,0.2-0.1,0.2c-1.4,2.7-0.7,5.8,1.6,6.6c1.4,0.5,2.8,0.9,4.3,1.3c3.7,1,5.9-0.6,7.7-4.4l9.1-19c0.9-2,4.1-0.9,3.6,1.3
		l-5.2,19.8c-0.8,2.9-0.2,5.2,2.7,5.5c1.6,0.2,3.2,0.3,4.9,0.4c3,0.2,4.5-2,5-4.9l2-19.2c0.1-0.9,1-1.7,1.9-1.7h0
		c0.9,0,1.8,0.8,1.9,1.7l2,19.2c0.5,2.9,2,5,5,4.9c1.7-0.1,3.3-0.2,4.9-0.4c2.9-0.3,3.5-2.6,2.7-5.5l-5.2-19.8
		c-0.5-2.2,2.6-3.3,3.6-1.3l9.1,19c1.9,3.8,4,5.4,7.7,4.4c1.5-0.4,3-0.9,4.3-1.3c2.3-0.8,3-3.9,1.6-6.6c0-0.1-0.1-0.2-0.1-0.2
		l-11-20.1c-0.9-1.9,1.9-3.6,3.1-2.1l15,18.6c2.1,2.5,4.9,4.6,7.9,2.9c0.1,0,0.1-0.1,0.2-0.1c1.3-0.8,2.5-1.5,3.6-2.2
		c1.8-1.2,1.9-4,0-6.8C332,689.7,309.1,662.8,309.1,662.8z M443.8,91.4l-2.1-7.2h-1.2v7.2h-3.7V71.9h5.4c3.1,0,5.3,2.5,5.3,6.1
		c0,3.3-1.4,4.8-2.5,5.4l2.7,8.1H443.8z M472.9,206.4c-2.5,4.6-13.9,17.9-16.4,29.2c-0.4,1.7-4.1,2-4.1,0v-23.2
		c0-11.7,6.3-17.8,9.7-21.4c5-5.2,11.2-11.2,11.2-17.3c0-2,2.7-2.2,2.7-0.2c0,2.3,0.1,9.4,0.1,11.3
		C476.3,197.4,476.2,200.4,472.9,206.4z M99.5,235.6c0,2-3.8,1.7-4.1,0C92.9,224.4,81.5,211,79,206.4c-3.3-6-3.3-9-3.3-21.6
		c0-1.9,0.1-9,0.1-11.3c0-2,2.8-1.8,2.8,0.2c0,6.2,6.2,12.2,11.2,17.3c3.5,3.6,9.7,9.7,9.7,21.4V235.6z M70.2,57.3v144.5
		c-3.3-2.8-6.5-4.9-9.8-6.1V57.3v-9.8h431.2v9.8v138.3c-3.3,1.3-6.5,3.7-9.8,6.6V57.3H70.2z M434,79.9v3.3h-4.7v5.1h4.9v3.3h-8.5
		V71.9h8.5v3.3h-4.9v4.7H434z M413.5,77c0-2.9,2-5.4,5.4-5.4c1.7,0,3.2,0.6,4.2,1.6l-1.4,2.8c-0.8-0.8-1.7-1.1-2.7-1.1
		c-1.1,0-1.8,0.8-1.8,2c0,3,6.2,3.5,6.2,9.3c0,3.3-2.2,5.7-5.5,5.7c-2.1,0-3.8-0.7-5-1.9l1.6-2.9c0.8,1,2.1,1.6,3.2,1.6
		c1.2,0,2-0.9,2-2.1C419.7,82.9,413.5,82.9,413.5,77z M407.2,88.2v3.3h-8.5V71.9h3.7v16.3H407.2z M395.9,79.9v3.3h-4.7v5.1h4.9v3.3
		h-8.5V71.9h8.5v3.3h-4.9v4.7H395.9z M385.2,81.7c0,5.6-1.9,9.8-6.6,9.8h-4.9V71.9h4.9C383.3,71.9,385.2,76.1,385.2,81.7z
		 M367.4,91.4h-3.8l-0.6-3.6h-3.7l-0.6,3.6H355l4.1-19.5h4.2L367.4,91.4z M353.5,71.9v19.5H350l-4-11.2v11.2h-3.7V71.9h3.7l3.7,10.8
		V71.9H353.5z M339.6,79.9v3.3H335v5.1h4.9v3.3h-8.5V71.9h8.5v3.3H335v4.7H339.6z M329.1,88.2v3.3h-8.5V71.9h3.7v16.3H329.1z
		 M318.5,78.1c0,3.3-1.7,6.2-5.5,6.2h-1.6v7.2h-3.7V71.9h5.3C316.7,71.9,318.5,74.8,318.5,78.1z M299.9,71.9v19.5h-3.5l-4-11.2v11.2
		h-3.7V71.9h3.7l3.7,10.8V71.9H299.9z M280.3,71.6c4.3,0,6.1,4.4,6.1,10.1c0,5.7-1.8,10.1-6.1,10.1c-4.3,0-6.1-4.4-6.1-10.1
		C274.1,75.9,276,71.6,280.3,71.6z M278.4,70.1l2.3-4.2h2.9l-3.1,4.2H278.4z M271.7,71.9v19.5h-3.7V71.9H271.7z M261,88.5
		c1.2,0,1.8-1.2,2-2.8l2.9,1.1c-0.5,2.2-1.7,5-4.9,5c-4.3,0-6.1-4.3-6.1-10.1c0-5.8,1.8-10.1,6.1-10.1c3.2,0,4.3,2.5,4.9,4.6l-3,1.1
		c-0.4-1.5-0.8-2.4-2-2.4c-1.7,0-2.3,2.8-2.3,6.8C258.6,85.7,259.2,88.5,261,88.5z M253.9,91.4h-3.8l-0.6-3.6h-3.7l-0.6,3.6h-3.8
		l4.1-19.5h4.2L253.9,91.4z M231.4,75.2v-3.3h9.1v3l-5,13.3h5.2v3.3h-9.3v-3.1l4.9-13.1H231.4z M229,71.9v19.5h-3.7V71.9H229z
		 M223.2,88.2v3.3h-8.5V71.9h3.7v16.3H223.2z M213.1,91.4h-3.8l-0.6-3.6h-3.7l-0.6,3.6h-3.8l4.1-19.5h4.2L213.1,91.4z M199.5,79.9
		v3.3h-4.7v5.1h4.9v3.3h-8.5V71.9h8.5v3.3h-4.9v4.7H199.5z M188.6,91.4h-4l-2.1-7.2h-1.2v7.2h-3.7V71.9h5.4c3.1,0,5.3,2.5,5.3,6.1
		c0,3.3-1.4,4.8-2.5,5.4L188.6,91.4z M171.4,91.4h-3.8l-0.6-3.6h-3.7l-0.6,3.6H159l4.1-19.5h4.2L171.4,91.4z M158.4,88.2v3.3h-8.5
		V71.9h3.7v16.3H158.4z M142.6,91.4h-4l-2.1-7.2h-1.2v7.2h-3.7V71.9h5.4c3.1,0,5.3,2.5,5.3,6.1c0,3.3-1.4,4.8-2.5,5.4L142.6,91.4z
		 M129.2,81.7c0,5.7-1.8,10.1-6.1,10.1c-4.3,0-6.1-4.4-6.1-10.1c0-5.7,1.8-10.1,6.1-10.1C127.4,71.6,129.2,75.9,129.2,81.7z
		 M108.4,91.4h-3.7V71.9h5.3c3.8,0,5.5,2.9,5.5,6.2c0,3.3-1.7,6.2-5.5,6.2h-1.6V91.4z M286.6,652l-2.5,11.9c-0.2,1-1.1,1.6-2.1,1.8
		c-1.7,0.3-3.7,0.4-6,0.4h0c-2.3,0-4.3-0.1-6-0.4c-1-0.2-1.9-0.8-2.1-1.8l-2.5-11.9c-0.1-0.7,0.4-1.4,1.1-1.3
		c3.1,0.2,6.1,0.2,9.5,0.2c3.4,0,6.4,0,9.5-0.2C286.2,650.6,286.7,651.2,286.6,652z M276,641c-92,0-166.6-74.6-166.6-166.6V111.8
		v-4.9V102h333.2v4.9v4.9v362.6C442.6,566.4,368,641,276,641z"/>
	<path class="st0" d="M432.8,111.8H119.2v362.6c0,86.6,70.2,156.8,156.8,156.8c86.6,0,156.8-70.2,156.8-156.8V111.8z M423,170.6
		v303.8c0,81.2-65.8,147-147,147c-81.2,0-147-65.8-147-147V170.6v-49h294V170.6z"/>
	<path class="st0" d="M476,259.2c0-12.3,9.1-21.4,17.6-22.3c8.1-0.8,16.8,1.6,21.7,7.9c0.2-1.9,0.1-3.9-0.2-6.1
		c-4.9-4.1-14.5-6.1-23.1-5.1c-1.3,0.1-1.4-1.8-0.2-2c5.7-1.1,15.6-1.1,22.3,1.9c-0.5-1.7-1.1-3.5-1.8-5.1c-4-1-12.7-2.4-23.4,0
		c-1.1,0.3-1.5-1.7-0.4-2c9.2-2.7,16.8-2.8,21.5-2.4c-0.9-1.5-1.9-2.9-2.9-4c-0.5-0.5-0.6-1.2-0.4-1.9c0.3-0.8,0.6-1.7,0.9-2.5
		c-5.1,1.7-13.9,4.3-19.6,7.7c-1,0.6-2.1-0.9-0.9-1.8c4.4-3.6,16.6-8.4,22.2-11.2c0.3-1,0.6-2.1,0.8-3.1c-6.2,3.4-15.7,6.4-19.4,8.9
		c-1.4,0.9-2.2-0.7-1.2-1.5c5.2-4.3,17.3-8.5,21.6-12.8c0.1-1.1,0.2-2.3,0.2-3.5c-1.6,1.8-3.9,3.4-7,4.5
		c-19.1,7-47.5,33.8-47.5,78.8l0,98.7c3.6-4.7,10.3-10.2,22.5-15.6c1.2-0.5,2.3-0.2,3.3,0.6c6.6,5.4,12.5,10.9,17.7,17.2
		c0.6,0.5-0.3,2-1.2,1.4c-6.3-5.6-13.1-11.1-19.3-14.2c-6.6,3-23.1,12-23.1,24.4l0,27.3c0.1,12.7,4.7,25.7,12.6,36.3l8.5-12.3
		l-9.9-8.1c-1.5-1.2-2-3.1-1.3-5.2c1-3,3.6-7.9,5.9-10.5c1.7-2,4.5-2.4,6.5-1l6.2,4.6c1.9,1.3,2.4,3.8,1.3,5.8l-1.8,3.1l20.5,16
		c3.8-14.3,9.6-41.1,9.6-61.2C515.1,336.2,476,285.4,476,259.2z M489.4,354.2c-1.2-15.5-4.7-33.2-9.6-47.9c-1.1,1.7-2.1,3.4-3,5.2
		c3.8,11.1,5.9,27,5.9,36.5c0,1.3-1.9,1.2-2-0.1c-0.3-8.6-3.1-20.8-6.4-31c-1.1,2.7-2,5.6-2.8,8.5c2.1,6.5,4.3,15.3,4.9,23.7
		c0.1,1.3-1.8,1.4-1.9,0.2c-0.7-6.4-2.4-12.4-4.2-17.8c-1.4,8.7-1.3,17.9,0.5,27.1c0.3,1.6-1.6,1.8-1.9,0.8
		c-6.8-21.8-2.2-45.5,9.9-60.1c1.2-1.4,3.3-1.3,3.9,0.7c5.4,17.7,8,38.2,8.6,53.9C491.4,355.3,489.5,355.4,489.4,354.2z
		 M494.4,414.8c-4.5,0-8.1-3.6-8.1-8.1c0-4.5,3.6-8.1,8.1-8.1c4.4,0,8.1,3.6,8.1,8.1C502.5,411.2,498.8,414.8,494.4,414.8z"/>
	<ellipse class="st0" cx="494.4" cy="406.8" rx="3.5" ry="3.5"/>
	<path class="st0" d="M498.7,481c5,1.4,9,4,12.3,7.7c0.4,0.4,0.7,0.8,1,1.2c1.4-2.4,1-5.4-0.2-7.5C510.6,480.1,505,478.8,498.7,481z
		"/>
	<path class="st0" d="M475.9,465c9.5-3.6,18.5-3.8,24.4-2.3l-18.6-14.3l-9.1,13.1C473.6,462.7,474.7,463.9,475.9,465z"/>
	<path class="st1" d="M442.6,474.4V111.8v-4.9V102H109.4v4.9v4.9v362.6c0,92,74.6,166.6,166.6,166.6
		C368,641,442.6,566.4,442.6,474.4z M276,631.2c-86.6,0-156.8-70.2-156.8-156.8V111.8h313.6v362.6C432.8,561,362.6,631.2,276,631.2z
		"/>
	<path class="st2" d="M342,562.3c-1,0.7-1.7,1.4-1.8,1.7c-0.1,0.3,0.4,1.1,1.1,2.1l10.3,14c2.4,3.3,3.4,3.9,5.9,2
		c5-3.7,5.1-10,0.6-16C352.5,558.3,346.9,558.7,342,562.3z"/>
	<path class="st2" d="M160.1,301.5c4.4,0,6.1-3,6.1-5.4c0-2-0.1-2.1-1.9-2.1h-11.1v1.2c0,1.8,0.3,2.9,1.2,4
		C155.8,300.9,157.9,301.5,160.1,301.5z"/>
	<path class="st2" d="M411.6,266.7c0-4.4-3.9-7.4-12.2-7.4c-8.9,0-14.2,3-14.2,8.5c0,4.5,4.6,7.6,12.4,7.6
		C405.4,275.3,411.6,272.4,411.6,266.7z"/>
	<polygon class="st2" points="401.2,363.3 391.9,366.4 391.9,366.5 401.2,369.5 	"/>
	<path class="st2" d="M382.8,508.8l7.8,2.8l0.3-0.9c1.3-3.6,0.5-6.2-3-7.4c-3.9-1.4-6,0.5-6.8,2.7c-0.3,0.9-0.4,1.4-0.3,1.8
		C380.8,508,381.7,508.4,382.8,508.8z"/>
	<polygon class="st2" points="391.9,440.3 401.2,443.4 401.2,437.1 391.9,440.2 	"/>
	<path class="st2" d="M391.8,234.2c-4.5,0-6.1,3-6.1,5.4c0,2,0.1,2.1,1.9,2.1h11.1v-1.2c0-1.8-0.3-2.9-1.2-4
		C396.2,234.9,394,234.2,391.8,234.2z"/>
	<polygon class="st2" points="307.2,586.1 306.9,595.8 312.9,594 307.3,586.1 	"/>
	<path class="st2" d="M405.5,513.9c0.9-2.4,0.3-5.6-4-7.1c-4.3-1.5-7.4,0.6-8.9,4.7l-0.3,0.8l7.4,2.6
		C403.6,516.2,404.7,516.1,405.5,513.9z"/>
	<polygon class="st2" points="400.8,481.3 391.4,483.9 391.4,484 400.5,487.6 	"/>
	<polygon class="st2" points="401.2,156.5 391.9,159.6 391.9,159.7 401.2,162.8 	"/>
	<polygon class="st2" points="160.2,395.3 151,392.2 151,398.5 160.2,395.4 	"/>
	<polygon class="st2" points="160.2,471.7 151,468.7 151,475 160.2,471.9 	"/>
	<path class="st2" d="M129,170.6v303.8c0,81.2,65.8,147,147,147c81.2,0,147-65.8,147-147V170.6v-49H129V170.6z M139.5,487.7
		c-0.4-3.9-0.7-8-0.7-12.2h1.4l0.4,1.1c0.2,1.6,0.7,1.8,2.6,1.1c1.5-0.6,3.8-1.4,5.5-2v-7.6c-1.3-0.5-3.3-1.1-5.2-1.6
		c-2.2-0.6-2.9-0.6-3.1,1.4l-0.1,1.1h-1.4v-9.7h1.4c0.3,2.6,0.7,3.1,4.8,4.6l23,8.7l0.6,2.1l-8.3,2.8c-5.3,1.8-10.7,3.7-15.2,5.3
		c-4.2,1.5-3.8,3.1-4.1,4.7L139.5,487.7z M143.5,390c-2.2-0.6-2.9-0.6-3.1,1.4l-0.1,1.1h-1.4v-9.7h1.4c0.3,2.6,0.7,3.1,4.8,4.6
		l23,8.7l0.6,2.1l-8.3,2.8c-5.3,1.8-10.7,3.7-15.2,5.3c-4.2,1.5-4.6,2.2-4.9,4.5h-1.4V399h1.4l0.2,1.1c0.2,1.6,0.9,1.8,2.8,1.1
		c1.5-0.6,3.7-1.4,5.4-2v-7.6C147.3,391.1,145.4,390.5,143.5,390z M140.2,353.7c0.3,3.4,0.8,3.7,5.6,3.7h15.4c4.8,0,5.2-0.3,5.5-3.3
		h1.4v12.8c0,4.9-1.2,9.3-4.1,12.2c-2,2-5.3,3.7-9.3,3.7c-11,0-16-8.1-16-18.2v-10.9H140.2z M138.8,348.6V336h1.4
		c0.3,3.2,0.8,3.5,5.6,3.5h15.4c4.8,0,5.2-0.3,5.5-3.5h1.4v12.6h-1.4c-0.3-3.2-0.7-3.5-5.5-3.5h-15.4c-4.8,0-5.3,0.3-5.6,3.5H138.8z
		 M140.2,414.2c0.3,3.3,0.8,3.7,5.6,3.7h15.4c4.8,0,5.2-0.3,5.5-3.4h1.4v12.8c0,4.9-1.2,9.3-4.1,12.2c-2,2-5.3,3.7-9.3,3.7
		c-11,0-16-8.1-16-18.2v-10.9H140.2z M173.6,566.7c-5.6-6.3-4.5-14.9,1.7-20.3c5.4-4.8,14.8-7,21.7,0.8c5.1,5.7,4.6,14.3-1.8,20.1
		C188.1,573.6,179.3,573.1,173.6,566.7z M196.3,542.5l0.7-0.8l6.9,4.6c0.8,0.5,0.9,1.1,0.4,1.9l-0.3,0.6c-0.6,1.1-1.3,1-1.9,0.2
		L196.3,542.5z M212.5,596l-2.3-1.3l-2.8-27.5l-0.1,0l-4.9,7.9c-2.5,4-3.6,6.2-4.2,7.5c-0.6,1.4-0.3,2.8,2,4.5l-0.8,1.2
		c-3-2-5.9-4.1-8.8-6.4l0.8-1.2c1.9,1.1,3.1,1.5,4.1,0.3c0.9-1.1,2.4-3,4.9-7l4.7-7.5c1.5-2.4,2.1-3.3,2-4.7
		c-0.1-1.3-0.3-2.8-1.7-3.8l0.9-1.2c2.1,1.8,3.9,3.2,5.6,4.4l3.4,26l0.1,0l4.2-6.7c2.5-4,3.6-6.2,4.2-7.5c0.6-1.4-0.2-2.4-2.5-4.1
		l0.8-1.2c2.9,1.7,6.1,3.4,9.6,5l-0.6,1.2c-1.9-0.9-3.5-0.4-4.5,0.8c-0.9,1.1-2.4,3-4.9,7L212.5,596z M254.4,595.5
		c-2.6,9.1-10.3,13.4-18.5,11.1c-8.1-2.3-11.7-10.1-9.5-18c2-7,8.8-13.8,18.8-11C252.6,579.6,256.8,587.1,254.4,595.5z M282.6,611.4
		l0-1.4c3.2-0.4,3.3-0.5,3.1-5.5l-0.6-16.8l-0.2,0l-8.7,23.9l-1.4,0l-9.7-22.1h-0.1l0,11.1c0,3.9,0.1,5.8,0.3,7.2
		c0.2,1.7,1.2,2.2,4,2.3l0,1.4c-3.7-0.2-7.2-0.5-10.4-0.9l0.1-1.4c1.7-0.1,3,0.1,3.2-1.6c0.2-1.4,0.4-3.4,0.4-7.5l0.2-9.1
		c0.2-6-0.2-7.9-3.8-8.7l0-1.4c2.9,0.4,5.7,0.8,8.5,1l9.5,20.7l7.8-20.8c2.8-0.2,5.5-0.5,8.5-1l0,1.4c-3.3,0.4-3.5,1.7-3.2,6.6
		l0.9,15.4c0.3,5,0.4,4.3,3.7,4.5l0,1.4C291.1,610.8,286.9,611.2,282.6,611.4z M316.9,605.4l-0.4-1.4l1-0.5c1.5-0.7,1.5-1.2,0.3-2.8
		c-1-1.3-2.4-3.3-3.5-4.7l-7.3,2.2c-0.1,1.4-0.1,3.4-0.1,5.4c0,2.3,0.2,2.8,2.2,2.4l1.1-0.2l0.4,1.4c-3.3,0.8-6.5,1.5-9.5,2.1
		l-0.3-1.4c2.4-1,2.9-0.6,3.2-4.9l1.7-24.6l1.8-1.2l5.1,7.2c3.2,4.6,6.6,9.2,9.4,13c2.6,3.6,3.3,3,5.6,2.6l0.4,1.4
		C324.4,602.8,320.7,604.2,316.9,605.4z M357.2,584.9l-8.7,6.4l-0.8-1.2c2.5-2.2,2.6-2.7-0.2-6.6l-9.5-13c-2.9-3.9-3.3-3.9-5.9-2.4
		l-0.8-1.2c3.7-2.3,7.3-4.7,10.6-7.3c4-2.9,8.3-4.4,12.3-3.8c2.8,0.4,6.1,2.1,8.5,5.3C369.1,570.2,365.4,578.9,357.2,584.9z
		 M377.4,566.7l-1.1-0.9c2-2.9,1.9-3.5-1.9-6.4l-12.2-9.5c-3.8-3-4.5-3.1-6.6-0.8l-1.1-0.9c4.6-4.9,8.6-10,12.1-15.5
		c0.6,0.4,3.5,2.4,6,4.1l-0.8,1.3c-1.9-1-3.4-1.5-4.4-1.4c-1,0.1-1.6,1.4-3.2,3.4l-1,1.3c-1,1.3-1.1,1.4,0.2,2.3l6.9,5.4l1.9-2.5
		c2.3-2.9,2.2-3.2-0.4-5.7l0.9-1.2l7.8,6l-1,1.2c-3.1-1.8-3.3-1.9-5.6,1l-1.9,2.5l5.6,4.3c2.6,2,3.4,2.5,4.3,2
		c0.7-0.4,1.4-1.3,2.5-2.7c1.2-1.6,2.3-3.4,2.1-4.8c-0.2-1.1-1-2.6-2.2-4.4l1.2-1c1.2,1.3,4.3,4.8,5,5.8
		C386.7,555.8,382.3,561.4,377.4,566.7z M416.8,461.4c1,1.5,1.9,3.3,2.4,5.2l-1.5,0.6c-1.1-2.4-2.9-3.8-5.6-4.3
		c-2.2-0.4-4.7-0.5-7.9-0.5h-13.5c-4.8,0-5.2,0.3-5.4,3.7h-1.4v-12.6h1.4c0.3,3,0.6,3.3,5.4,3.3h13.9
		C409.5,456.8,413.7,457,416.8,461.4z M408.6,445.6c2.2,0.6,2.7,0.6,3-1.4l0.1-1.1h1.4v9.7h-1.4c-0.3-2.6-0.5-3.1-4.6-4.6l-23-8.7
		l-0.6-2.1l8.3-2.8c5.3-1.8,10.7-3.7,15.2-5.3c4.2-1.5,4.4-2.2,4.7-4.5h1.4v11.8h-1.4l-0.2-1.1c-0.2-1.6-0.7-1.8-2.6-1.1
		c-1.5,0.6-3.8,1.4-5.5,2v7.6C404.7,444.5,406.7,445,408.6,445.6z M399,406.8c-8.8,0-15.6-6.7-15.6-16.8c0-3.7,0.9-6.5,1.2-7.7
		c2.5-0.3,4.4-0.5,7.3-0.8l0.3,1.5c-5.2,1.4-6.7,4-6.7,7.7c0,6.6,6.1,9.7,12.6,9.7c8.3,0,13.9-3.9,13.9-9.6c0-4.3-2.5-6.5-7.3-8.7
		l0.3-1.5c2.4,0.6,6,1.5,7.7,2.2c0.3,1.2,1.3,5.1,1.3,8C413.8,402.2,406.2,406.8,399,406.8z M387.4,296.9h9.7v-3.8
		c0-3.7-0.2-3.8-3.6-4.3v-1.5h9.5v1.5c-3.4,0.4-3.6,0.6-3.6,4.3v3.8h6.8c4.9,0,5.2-0.3,5.5-4.1h1.4V306h-1.4
		c-0.3-3.1-0.6-3.4-5.5-3.4h-15.6c-4.9,0-5.2,0.3-5.5,3.4h-1.4v-21.1c0.8,0,4.1-0.3,7.1-0.5l0.1,1.5c-2.1,0.4-3.4,0.9-4.1,1.6
		c-0.8,0.7-1,2.1-1,4.6v3.1C385.8,296.9,385.8,296.9,387.4,296.9z M385.2,311.1c0.3,3.2,0.6,3.5,5.5,3.5h15.6c4.9,0,5.2-0.3,5.5-3.5
		h1.4v12.6h-1.4c-0.3-3.2-0.6-3.5-5.5-3.5h-15.6c-4.9,0-5.2,0.3-5.5,3.5h-1.4v-12.6H385.2z M385.2,335.2c0.3,3.3,0.6,3.7,5.5,3.7
		h15.4c3.3,0,4.3-0.2,4.7-1.1c0.3-0.7,0.4-1.9,0.4-3.2c0-1.7-0.3-3.6-1.4-4.6c-0.9-0.7-2.3-1.4-4.5-2.1l0.3-1.5
		c1.8,0.3,6.4,1.1,7.6,1.5v20.5h-1.4c-0.3-3.5-0.6-3.9-5.5-3.9h-15.6c-4.9,0-5.2,0.3-5.5,3.6h-1.4v-12.9H385.2z M391.8,360.7
		c5.3-1.8,10.7-3.7,15.2-5.3c4.2-1.5,4.4-2.2,4.7-4.5h1.4v11.8h-1.4l-0.2-1.1c-0.2-1.6-0.7-1.8-2.6-1.1c-1.5,0.6-3.8,1.4-5.5,2v7.6
		c1.3,0.5,3.3,1.1,5.2,1.6c2.2,0.6,2.7,0.6,3-1.4l0.1-1.1h1.4v9.7h-1.4c-0.3-2.6-0.5-3.1-4.6-4.6l-23-8.7l-0.6-2.1L391.8,360.7z
		 M406.2,241.7c4.9,0,5.2-0.3,5.5-3.5h1.4v12.5h-1.4c-0.3-3.3-0.6-3.6-5.5-3.6h-15.6c-4.9,0-5.2,0.3-5.5,3.4h-1.4v-11.6
		c0-3.6,0.4-6,1.5-7.7c1.1-1.7,3.3-2.8,5.8-2.8c3.9,0,6.3,2.2,7.6,5.5c1.3-0.6,4.3-2.2,6.5-3.5c2.4-1.5,4.2-2.6,5.1-3.4
		c1-0.9,1.5-1.5,1.9-2.5l1.4,0.1l-0.1,1.6c-0.3,5.2-1.5,6.7-4.1,8.4c-2.1,1.3-4.7,2.5-7.1,3.6c-1.4,0.6-1.8,1.2-1.8,2.6v1H406.2z
		 M413.5,198.6l-22.1,17v0.1h9.4c4.7,0,7.2-0.3,8.6-0.4c1.6-0.2,2.2-1.3,2.3-4.1h1.4v10.7h-1.4c-0.1-2.1-0.7-3.2-2.3-3.4
		c-1.4-0.2-3.9-0.4-8.6-0.4h-9c-2.9,0-4,0-5.1,0.8c-1.1,0.8-1.4,1.9-1.5,3.6h-1.4v-7.5l20.3-16.6v-0.1h-8c-4.7,0-7.2,0.3-8.6,0.4
		c-1.6,0.2-2.2,1.3-2.3,4.1h-1.4v-10.7h1.4c0.1,2.1,0.7,3.2,2.3,3.4c1.4,0.2,3.9,0.4,8.6,0.4h17.3V198.6z M383.8,188v-12.6h1.4
		c0.3,3.2,0.6,3.5,5.5,3.5h15.6c4.9,0,5.2-0.3,5.5-3.5h1.4V188h-1.4c-0.3-3.2-0.6-3.5-5.5-3.5h-15.6c-4.9,0-5.2,0.3-5.5,3.5H383.8z
		 M391.8,154c5.3-1.8,10.7-3.7,15.2-5.3c4.2-1.5,4.4-2.2,4.7-4.5h1.4v11.8h-1.4l-0.2-1.1c-0.2-1.6-0.7-1.8-2.6-1.1
		c-1.5,0.6-3.8,1.4-5.5,2v7.6c1.3,0.5,3.3,1.1,5.2,1.6c2.2,0.6,2.7,0.6,3-1.4l0.1-1.1h1.4v9.7h-1.4c-0.3-2.6-0.5-3.1-4.6-4.6
		l-23-8.7l-0.6-2.1L391.8,154z M398,252.9c9.5,0,15.7,6.3,15.7,14.8c0,8.5-6.6,14-14.8,14c-7.2,0-15.7-4.7-15.7-15.1
		C383.2,258.9,389.3,252.9,398,252.9z M391.6,478.3c5.4-1.5,10.9-3.1,15.5-4.5c4.3-1.3,4.2-2,4.6-4.2h1.4c0,4.4,0,8.1-0.2,11.9
		l-1.5-0.1l0-1.1c-0.1-1.6-0.8-1.8-2.8-1.2c-1.5,0.5-3.9,1.2-5.6,1.7l-0.4,7.6c1.3,0.6,3.2,1.2,5.1,1.9c2.2,0.8,2.7,0.7,3-1.3
		l0.2-1.2l1.4,0.2c-0.3,3.2-0.7,6.5-1.3,9.8l-1.4-0.3c0.1-2.1,0.4-3-3.6-4.8l-22.5-9.9l-0.5-2.1L391.6,478.3z M379.6,504.2
		c1.6-5.7,5.1-8.2,9.6-6.6c3.7,1.3,4.5,5.2,3.9,8l0.1,0c2.1-4,5.5-6.4,9.7-4.9c3.1,1.1,4.8,3.2,5.3,5.8c0.5,2.4,0,5.4-1.1,8.5
		c-1.1,3.1-2.5,7.2-3.8,10.5l-1.4-0.5c0.8-3.1,0.4-3.6-4.1-5.2l-14.6-5.3c-4.6-1.6-5-1.4-6.2,1.3l-1.4-0.5
		C377.2,511.8,378.5,508.1,379.6,504.2z M178,170.6h196v303.8c0,54.1-43.9,98-98,98c-54.1,0-98-43.9-98-98V170.6z M176.9,514.3
		c-0.6,1.1-0.5,1.6,0,2.6c2.3,5.2,4.9,10.3,8,15.1c0.6,1,0.9,1.3,2,1.7l0.3,0.7c-1.7,0.8-4.8,2.5-7.5,4L179,537
		c2-1.4,2.9-2.4,3.4-3.3c0.4-0.9-0.9-2.3-2.7-5.6l-18.4,8.5c-4.4,2-4,2.5-2.7,6.1l-1.3,0.6c-2.3-3.9-4.5-8.1-6.5-12.5l1.3-0.6
		c1.8,3.2,2.4,3.3,6.8,1.3l18.2-8.4l-0.4-1c-1.5-3.2-2.2-4.1-3.2-4.3c-0.8-0.2-2.2-0.2-4.4,0.3l-0.6-1.4c3-1.2,6-2.4,8.1-3.3
		L176.9,514.3z M145,506c1.2,4.9,6.1,6.4,12.9,4.2c0,0,10-3.6,11.3-4c1.5-0.6,1.4-1.8,0.9-4.6l1.4-0.3c0.9,3.5,2,7,3.2,10.2
		l-1.4,0.4c-0.6-2.1-1.8-2.8-3.4-2.6c-1.4,0.1-11.6,3.6-11.6,3.6c-4.1,1.2-13.8,4-16.4-7.5c-0.6-2.8-0.7-5.7,0.6-8.2
		c1.4-2.7,4-4.6,9.1-6.1l10.1-3.1c4.7-1.4,5.7-1.7,5.2-5l1.6-0.2c0.3,4,0.9,8.2,1.7,12.5l-1.4,0.3c-1-2.9-1.4-3.6-5.8-2.2l-9.3,2.9
		C147,498.3,143.9,501.4,145,506z M140.7,150.8c1.9-2.3,5.2-3.3,10.4-3.3h10.1c4.8,0,5.2,0,5.5-3.3h1.4V157h-1.4
		c-0.3-3.1-0.7-3.9-5.5-3.9H152c-7,0-10.8,2.6-10.8,7.4c0,5.1,4,7.5,11.7,7.5h3c4.7,0,7.3-0.3,8.6-0.4c1.6-0.2,2.2-1.3,2.3-4.2h1.4
		v10.8h-1.4c-0.1-2.2-0.7-3.2-2.3-3.4c-1.4-0.2-3.9-0.4-8.6-0.4h-3.3c-4.3,0-8.3-0.7-10.9-3.1c-2.1-1.9-3.3-5-3.3-8.1
		C138.3,156.3,138.9,152.9,140.7,150.8z M155.8,201.3c4.7,0,7.3-0.3,8.6-0.4c1.6-0.2,2.2-1.3,2.3-4.1h1.4v10.7h-1.4
		c-0.1-2.1-0.7-3.2-2.3-3.4c-1.4-0.2-3.9-0.4-8.6-0.4h-17V201l21.7-17v-0.1h-9.3c-4.7,0-7.4,0.3-8.7,0.4c-1.6,0.2-2.2,1.3-2.3,4.1
		h-1.4v-10.6h1.4c0.1,2.1,0.7,3.2,2.3,3.4c1.4,0.2,4,0.4,8.7,0.4h8.9c2.9,0,4,0,5.1-0.8c1.1-0.8,1.4-1.9,1.5-3.6h1.4v7.5l-20.3,16.6
		v0.1H155.8z M162.8,249.4c3,1,3.6,0.6,3.8-1.3l0.1-1.3h1.4V257h-1.4c-0.3-2.7-0.6-3.1-5-4.9c-0.6-0.3-13.8-5.6-23-8.8V241
		c8.1-3,19.1-7.1,23.3-8.6c4.1-1.5,4.4-2.3,4.7-4.5h1.4v12.4h-1.4l-0.2-1.5c-0.2-1.6-0.6-1.7-2.5-1.1c-2.5,0.8-11.4,4.2-17.6,6.4
		C150.5,245.5,160.7,248.7,162.8,249.4z M145.8,294c-4.8,0-5.3,0.3-5.6,3.5h-1.4V285h1.4c0.3,3.3,0.8,3.6,5.6,3.6h15.4
		c4.8,0,5.2-0.3,5.5-3.4h1.4v11.6c0,3.7-0.4,6-1.5,7.7c-1.1,1.7-3.3,2.8-5.9,2.8c-3.9,0-6.3-2.2-7.6-5.5c-1.3,0.6-4.3,2.2-6.4,3.5
		c-2.4,1.5-4.1,2.6-5.1,3.4c-1,0.9-1.5,1.5-1.8,2.5l-1.3-0.1l0.1-1.5c0.3-5.2,1.5-6.7,4.1-8.4c2.1-1.3,4.7-2.5,7.1-3.7
		c1.4-0.6,1.8-1.2,1.8-2.6v-1H145.8z M161.1,279.8l-0.1-1.5c2.1-0.4,3.4-0.9,4.2-1.6c0.8-0.7,1-2.1,1-4.6v-1.7c0-1.6,0-1.7-1.6-1.7
		h-9.3v3.1c0,3.7,0.2,3.8,3.8,4.3v1.5h-9.8V276c3.5-0.4,3.8-0.6,3.8-4.3v-3.1h-7c-3.3,0-4.4,0.2-4.8,1.1c-0.4,0.7-0.2,1.9-0.2,3.6
		c0,2,0.1,4,1.2,4.9c0.8,0.7,2.5,1.4,4.7,2.1l-0.3,1.5c-1.7-0.3-6.5-1.1-7.7-1.5v-21.2h1.4c0.3,3.5,0.8,3.9,5.6,3.9h15.4
		c4.8,0,5.2-0.3,5.5-3.4h1.4v19.7C167.4,279.4,164.1,279.6,161.1,279.8z M166.7,224.2c-0.3-3.2-0.6-3.5-5.5-3.5h-15.6
		c-4.9,0-5.2,0.3-5.5,3.5h-1.4v-12.6h1.4c0.3,3.2,0.6,3.5,5.5,3.5h15.6c4.9,0,5.2-0.3,5.5-3.5h1.4v12.6H166.7z M139,317.5
		c0.4-1.2,0.8-2,1-2.6c1.2-0.3,4.3-0.9,6.9-1.3l0.6,1.5c-2.5,0.7-7.3,3.2-7.3,7.4c0,2.8,2.2,4.4,4.7,4.4c3,0,4.5-1.6,6-4.8l0.4-0.9
		c1.7-3.6,4.3-6.7,8.5-6.7c4.8,0,8.8,3.6,8.8,9.5c0,1.3-0.2,2.7-0.6,3.9c-0.2,0.7-0.4,1.3-0.6,1.9c-1.6,0.2-3.6,0.5-6.3,0.9
		l-0.3-1.6c2.6-0.9,5.8-2.1,5.8-5.8c0-2.6-2-4.2-4.5-4.2c-2.3,0-3.9,1.6-5.3,4.7l-0.6,1.4c-1.5,3.4-3.9,6.6-8.7,6.6
		c-5.3,0-9.3-4-9.3-10.2C138.3,320.3,138.6,318.7,139,317.5z"/>
	<path class="st2" d="M153.5,376.5c9.6,0,12.7-4.7,12.7-10.8c0-1.2-0.1-2.2-0.3-2.4c-0.2-0.3-1.1-0.3-2.3-0.3h-17.5
		c-4.1,0-5.3,0.4-5.3,3.5C140.8,372.7,146,376.5,153.5,376.5z"/>
	<path class="st2" d="M194.8,547.7c-3-3.3-8.5-2.6-14.3,2.6c-5.8,5.2-8.5,11.6-4.7,15.8c2.9,3.3,7.9,2.9,14.1-2.6
		C196.5,557.6,198.4,551.8,194.8,547.7z"/>
	<path class="st2" d="M243.6,579.1c-4.3-1.2-8.6,2.4-10.7,9.9c-2.1,7.5-0.9,14.3,4.6,15.9c4.3,1.2,8.2-1.8,10.5-9.8
		C250.3,586.5,248.9,580.6,243.6,579.1z"/>
	<path class="st2" d="M153.5,437c9.6,0,12.7-4.7,12.7-10.8c0-1.2-0.1-2.2-0.3-2.4c-0.2-0.3-1.1-0.3-2.3-0.3h-17.5
		c-4.1,0-5.3,0.4-5.3,3.5C140.8,433.2,146,437,153.5,437z"/>
	<path class="st2" d="M481.8,202.3c3.3-2.8,6.5-5.3,9.8-6.6V57.3v-9.8H60.4v9.8v138.4c3.3,1.3,6.5,3.3,9.8,6.1V57.3h411.6V202.3z"/>
	<path class="st1" d="M345.4,220.7c0.1-0.5,1.9-4.1,2.5-5.3c2-3.9,8.2-3,8,2.8c-0.2,6.2-1,11-2.1,14.8c3.8,3,7.4,5.8,10.3,8.1v-29.4
		c-6.5-1.7-18.9-4.9-24.3-6.4c-1.6,4.1-3.6,8.1-6,11.8c2.4,1.9,5.2,4.1,8.1,6.4C342.9,222,344,220.6,345.4,220.7z"/>
	<path class="st1" d="M240.5,275.2c3.5-11.5,6.7-22.4,9.4-31.3c-3.4-1.4-6.7-3.1-9.9-5c-4.1,5.3-8.4,10.8-12.7,16.4
		c3.7,4,7.8,9.6,11.9,18.6C239.6,274.3,240,274.7,240.5,275.2z"/>
	<path class="st1" d="M256.1,292.5c1.8,0.9,6.2,1.1,9,2.7c0,0,0-2.7,0-2.8c-2.3-4.4-3.6-11.3-4.3-18.5c-0.7-6.5,3.6-15.9,15.1-15.9
		c11.5,0,15.8,9.4,15.1,15.9c-0.7,7.2-2.1,14.1-4.4,18.5c0,0.1,0,2.8,0,2.8c2.8-1.6,7.2-1.8,9-2.7c2.3-4.3,5.5-7.9,8.5-10.8
		c-4.5-12.8-8.7-24.9-12.1-34.6c-5.2,1.3-10.6,1.9-16.2,1.9c-5.6,0-11-0.7-16.1-1.9c-3.4,9.7-7.7,21.9-12.1,34.6
		C250.7,284.7,253.8,288.2,256.1,292.5z"/>
	<path class="st1" d="M338.3,238.2c-1.5-2.8-1.1-5.6-0.2-7.9c-3.4-2.2-6.5-4.4-9.3-6.2c-2.6,3.1-5.4,6-8.4,8.5
		c3.5,5.2,7.2,10.7,11,16.2C334.9,245.7,337.5,243.1,338.3,238.2z"/>
	<path class="st1" d="M312.7,273.8c4.1-9,8.3-14.6,12-18.6c-4.3-5.6-8.6-11.1-12.7-16.4c-3.1,1.9-6.4,3.6-9.9,5
		c2.7,8.9,5.9,19.7,9.4,31.2C311.9,274.7,312.3,274.2,312.7,273.8z"/>
	<path class="st1" d="M200.4,239.3c-4.9,3.3-9.4,6.3-12.6,8.4v49.6c5.9-8.7,14.5-21.4,23.6-34.8c-3.4-7-6.3-14-9.6-20.2
		C201.3,241.3,200.8,240.3,200.4,239.3z"/>
	<path class="st1" d="M213.6,238.2c0.8,5,3.4,7.5,7,10.7c3.7-5.5,7.4-11,11-16.2c-3.1-2.6-5.9-5.5-8.5-8.6c-2.7,1.8-5.9,3.9-9.3,6.2
		C214.8,232.6,215.2,235.4,213.6,238.2z"/>
	<path class="st1" d="M204,215.4c0.6,1.2,2.3,4.8,2.5,5.3c1.5-0.1,2.5,1.4,3.5,2.9c2.9-2.3,5.7-4.5,8.1-6.4c-2.4-3.7-4.4-7.7-6-11.8
		c-5.5,1.5-17.8,4.7-24.3,6.4v29.4c2.9-2.3,6.5-5.2,10.3-8.2c-1.1-3.8-1.9-8.6-2.1-14.8C195.8,212.4,202,211.5,204,215.4z"/>
	<path class="st1" d="M364.2,180.4h-19.6c0,6-0.8,11.8-2.2,17.3c4.8,1.8,15.3,5.9,21.8,8.5V180.4z"/>
	<path class="st1" d="M340.6,262.3c9.1,13.4,17.7,26,23.6,34.8v-49.5c-3.2-2.1-7.7-5.1-12.6-8.4c-0.5,1.1-1,2-1.4,3
		C346.9,248.4,344,255.3,340.6,262.3z"/>
	<path class="st1" d="M276,562.6c48.7,0,88.2-39.5,88.2-88.2V306.1c-5.6-7.3-16.2-20.9-27.8-35.8c-2.8,4.9-6.1,9.6-10.3,14
		c-1.3,4-3.8,9.6-7.3,15.3c10,33.6,19.5,65.3,19.5,65.3c0.5,1.7-3.7,3.4-4.4,1.4c0,0-9.8-27.9-20.6-58.9c-2,2.5-4.3,4.9-6.7,6.9
		c0,3.8-3.7,15.2-6.4,19c0.3,4.4-1.3,12.3-2.3,16c0.8,4.9,1.1,14,0.4,17.3c2.6,9.7,3.7,17.9,3.7,26.6c0.1,19.6-7.6,38.5-7.4,49.2
		c0.1,10.4,2,14.5,1.8,22.5c-0.1,14.5-8.7,34.9-8.7,44c0,5.1,3.4,16.1,3.7,20.7c0.1,1.6-0.1,3.5-0.9,5.2c-1.7,3.6-8.3,8.9-12.8,8.9
		H276h-1.7c-4.5,0-11.1-5.3-12.8-8.9c-0.8-1.7-1-3.6-0.9-5.2c0.3-4.6,3.7-15.7,3.7-20.7c0-9-8.7-29.4-8.8-44
		c-0.3-8,1.6-12.1,1.8-22.5c0.2-10.7-7.5-29.6-7.4-49.2c0-8.7,1.1-17,3.7-26.6c-0.7-3.3-0.4-12.4,0.4-17.3c-1-3.6-2.6-11.6-2.3-16
		c-2.7-3.8-6.3-15.2-6.4-19c-2.4-2-4.6-4.4-6.6-6.9c-10.9,31-20.6,58.8-20.6,58.8c-0.7,1.9-4.9,0.3-4.4-1.4c0,0,9.5-31.7,19.5-65.2
		c-3.5-5.7-6-11.3-7.3-15.3c-4.1-4.3-7.4-9-10.3-13.9c-11.7,15-22.2,28.7-27.8,35.9v168.2C187.8,523.1,227.3,562.6,276,562.6z
		 M291.4,510.5c-0.7-6.8,6.2-19.3,8-33.3c5.4-3.9,11.3-3.3,16.8-1v54.4c-6.7-2.1-13.8-1.9-21.5,2
		C295.6,526.4,292.1,518.4,291.4,510.5z M235.7,476.2c5.5-2.3,11.4-2.9,16.8,1c1.8,14,8.7,26.5,8,33.3c-0.8,7.9-4.3,15.8-3.4,22.1
		c-7.7-3.9-14.8-4.1-21.5-2V476.2z M227,483.5l4.5-2.2v54.7c10.5-4.1,20.3-2.8,28.7,3.2c3.8,2.7,8.4,9.1,15.7,9.1h0
		c7.3,0,11.9-6.4,15.7-9.1c8.4-6,18.3-7.3,28.7-3.2v-54.7l4.5,2.2V543l-3.3-1.6c-10.2-4.9-19.4-4.3-27.4,1.4c-2.6,1.8-8,10-18.4,10
		l0,0v0c-10.4,0-15.8-8.1-18.4-10c-8-5.7-17.1-6.3-27.4-1.4L227,543V483.5z"/>
	<path class="st1" d="M207.4,180.4h-19.6v25.8c6.5-2.5,16.9-6.6,21.8-8.5C208.2,192.2,207.4,186.4,207.4,180.4z"/>
	<path class="st3" d="M266.1,209.8c0,13.5,11,24.5,24.5,24.5c13.5,0,24.5-11,24.5-24.5s-11-24.5-24.5-24.5
		C277.1,185.3,266.1,196.3,266.1,209.8z M283.7,202.9l4.3,0.7l2.6-3.5l2.7,3.5l4.2-0.6l-0.5,4.3l3.4,2.7l-3.4,2.2l0.6,4.7l-4.4-0.9
		l-2.5,3.8l-2.8-3.7l-4.1,0.9l0.6-4.3l-3.4-2.6l3.5-2.6L283.7,202.9z"/>
	<path d="M223.2,194.5c1.6-0.9,5.8-3.7,11.8-4.4c6-0.7,12.8,2.1,15.2,3.5c1.4,0.8,1,4.3-1.1,4c-2-0.3-7.5-2-11.2-1.6
		c-5.5,0.5-10.2,4.9-11.3,6.1c-0.4,0.4,0.5,1.4,1,1c1.8-1.6,4.3-3.1,8-3.4c5.5-0.4,9,1.2,11.3,2.8c1.5,1,1.1,3.9-0.4,3.6
		c-1.6-0.4-5-1.1-8-0.7c-3.1,0.4-6.6,2.7-7.2,3.8c-0.3,0.4,0.5,1.1,0.9,0.8c1.5-1.2,4.7-1.9,7.6-1.6c3.2,0.3,6.2,2.1,7.2,3
		c0.9,0.8,0.9,3.5-0.8,3.2c-3.7-0.7-7.3-0.6-9.8,2.1c-0.4,0.4,0.1,1,0.5,0.8c1.1-0.6,3.5-0.8,5.7-0.5c3.6,0.5,5.8,1.9,6.5,2.7
		c0.7,0.7,0.1,2.8-0.8,2.8c-0.9,0-4.5-1.1-6.8,0.7c-0.5,0.4-0.1,1.1,0.3,0.9c1.1-0.4,4.1,0.1,6.1,1.9c3.7,3.4,17.5,13.3,31.2,10.6
		c0.7-0.1,0.6-1.1-0.1-1.2c-16.7-1.7-23.6-15.2-23.6-25.3c0-10.8,7.7-23.9,23.7-25.2c0.6-0.1,0.7-1.1,0-1.2
		c-11.1-2.2-20.8,3.2-27.5,3.5c-5.6,0.2-7.3-1.9-15.7-0.9c-5.9,0.8-12.5,6.5-13.5,7.6C222,193.9,222.8,194.7,223.2,194.5z"/>
	<path class="st0" d="M145.1,482.8c4.5-1.6,9.9-3.5,15.2-5.3l8.3-2.8l-0.6-2.1l-23-8.7c-4-1.5-4.4-2.1-4.8-4.6h-1.4v9.7h1.4l0.1-1.1
		c0.2-2,0.9-2.1,3.1-1.4c1.9,0.6,3.9,1.1,5.2,1.6v7.6c-1.7,0.7-4,1.5-5.5,2c-1.9,0.7-2.4,0.5-2.6-1.1l-0.4-1.1h-1.4
		c0.1,4.2,0.3,8.3,0.7,12.2l1.5-0.2C141.3,485.9,140.9,484.3,145.1,482.8z M151,468.7l9.2,3.1v0.1L151,475V468.7z"/>
	<path class="st0" d="M384.3,545.1c1.3,1.9,2.1,3.3,2.2,4.4c0.3,1.4-0.9,3.2-2.1,4.8c-1.1,1.4-1.8,2.3-2.5,2.7c-0.9,0.4-1.8,0-4.3-2
		l-5.6-4.3l1.9-2.5c2.3-2.9,2.5-2.9,5.6-1l1-1.2l-7.8-6l-0.9,1.2c2.5,2.5,2.6,2.8,0.4,5.7l-1.9,2.5l-6.9-5.4c-1.2-1-1.2-1-0.2-2.3
		l1-1.3c1.6-2,2.1-3.3,3.2-3.4c1-0.1,2.4,0.4,4.4,1.4l0.8-1.3c-2.5-1.6-5.4-3.6-6-4.1c-3.5,5.5-7.5,10.6-12.1,15.5l1.1,0.9
		c2.1-2.3,2.8-2.2,6.6,0.8l12.2,9.5c3.8,3,3.9,3.5,1.9,6.4l1.1,0.9c4.8-5.3,9.3-10.9,13.1-16.9c-0.7-1-3.8-4.5-5-5.8L384.3,545.1z"
		/>
	<path class="st0" d="M138.8,364.6c0,10.1,5,18.2,16,18.2c4,0,7.3-1.7,9.3-3.7c2.9-2.9,4.1-7.3,4.1-12.2V354h-1.4
		c-0.3,3-0.7,3.3-5.5,3.3h-15.4c-4.8,0-5.3-0.3-5.6-3.7h-1.4V364.6z M146.1,363h17.5c1.2,0,2.2,0,2.3,0.3c0.2,0.3,0.3,1.2,0.3,2.4
		c0,6.1-3.1,10.8-12.7,10.8c-7.5,0-12.7-3.8-12.7-10C140.8,363.4,142,363,146.1,363z"/>
	<path class="st0" d="M404.9,380.5l-0.3,1.5c4.8,2.2,7.3,4.4,7.3,8.7c0,5.7-5.6,9.6-13.9,9.6c-6.5,0-12.6-3.1-12.6-9.7
		c0-3.6,1.4-6.3,6.7-7.7l-0.3-1.5c-2.8,0.3-4.8,0.4-7.3,0.8c-0.3,1.2-1.2,4.1-1.2,7.7c0,10.1,6.8,16.8,15.6,16.8
		c7.2,0,14.8-4.5,14.8-16c0-3-0.9-6.8-1.3-8C410.9,382,407.3,381.1,404.9,380.5z"/>
	<path class="st0" d="M143.2,401.2c-1.9,0.7-2.6,0.5-2.8-1.1l-0.2-1.1h-1.4v11.8h1.4c0.3-2.3,0.7-3,4.9-4.5
		c4.5-1.6,9.9-3.5,15.2-5.3l8.3-2.8l-0.6-2.1l-23-8.7c-4-1.5-4.4-2.1-4.8-4.6h-1.4v9.7h1.4l0.1-1.1c0.2-2,0.9-2.1,3.1-1.4
		c1.9,0.6,3.8,1.1,5.1,1.6v7.6C146.9,399.9,144.7,400.7,143.2,401.2z M151,392.2l9.2,3v0.1l-9.2,3.1V392.2z"/>
	<path class="st0" d="M383.8,348.1h1.4c0.3-3.3,0.6-3.6,5.5-3.6h15.6c4.9,0,5.2,0.3,5.5,3.9h1.4v-20.5c-1.2-0.4-5.8-1.2-7.6-1.5
		l-0.3,1.5c2.2,0.7,3.6,1.4,4.5,2.1c1.1,1,1.4,3,1.4,4.6c0,1.3,0,2.5-0.4,3.2c-0.4,0.9-1.4,1.1-4.7,1.1h-15.4
		c-4.9,0-5.2-0.3-5.5-3.7h-1.4V348.1z"/>
	<path class="st0" d="M384.1,365.7l23,8.7c4,1.5,4.3,2.1,4.6,4.6h1.4v-9.7h-1.4l-0.1,1.1c-0.2,2-0.7,2.1-3,1.4
		c-1.9-0.6-3.9-1.1-5.2-1.6v-7.6c1.7-0.6,4-1.5,5.5-2c1.9-0.7,2.4-0.5,2.6,1.1l0.2,1.1h1.4V351h-1.4c-0.3,2.3-0.5,3-4.7,4.5
		c-4.5,1.6-9.9,3.5-15.2,5.3l-8.3,2.8L384.1,365.7z M391.9,366.4l9.2-3.1v6.3l-9.2-3V366.4z"/>
	<path class="st0" d="M145.8,345.1h15.4c4.8,0,5.2,0.3,5.5,3.5h1.4V336h-1.4c-0.3,3.2-0.7,3.5-5.5,3.5h-15.4c-4.8,0-5.3-0.3-5.6-3.5
		h-1.4v12.6h1.4C140.5,345.4,141,345.1,145.8,345.1z"/>
	<path class="st0" d="M386.8,287.5c0.7-0.7,2-1.2,4.1-1.6l-0.1-1.5c-3,0.2-6.3,0.4-7.1,0.5V306h1.4c0.3-3.1,0.6-3.4,5.5-3.4h15.6
		c4.9,0,5.2,0.3,5.5,3.4h1.4v-13.1h-1.4c-0.3,3.8-0.6,4.1-5.5,4.1h-6.8v-3.8c0-3.7,0.2-3.8,3.6-4.3v-1.5h-9.5v1.5
		c3.3,0.4,3.6,0.6,3.6,4.3v3.8h-9.7c-1.6,0-1.6-0.1-1.6-1.7v-3.1C385.8,289.6,386.1,288.2,386.8,287.5z"/>
	<path class="st0" d="M383.8,323.7h1.4c0.3-3.2,0.6-3.5,5.5-3.5h15.6c4.9,0,5.2,0.3,5.5,3.5h1.4v-12.6h-1.4
		c-0.3,3.2-0.6,3.5-5.5,3.5h-15.6c-4.9,0-5.2-0.3-5.5-3.5h-1.4V323.7z"/>
	<path class="st0" d="M383.2,514.6l14.6,5.3c4.6,1.6,5,2.1,4.1,5.2l1.4,0.5c1.3-3.3,2.7-7.4,3.8-10.5c1.1-3.1,1.7-6.1,1.1-8.5
		c-0.5-2.6-2.2-4.7-5.3-5.8c-4.2-1.5-7.6,0.8-9.7,4.9l-0.1,0c0.6-2.8-0.2-6.7-3.9-8c-4.5-1.6-8,0.9-9.6,6.6c-1.1,3.9-2.5,7.6-4,11.2
		l1.4,0.5C378.3,513.2,378.7,513,383.2,514.6z M392.6,511.5c1.5-4.2,4.6-6.3,8.9-4.7c4.3,1.6,4.9,4.8,4,7.1c-0.7,2.2-1.9,2.4-5.8,1
		l-7.4-2.6L392.6,511.5z M381,506c0.8-2.2,2.9-4.1,6.8-2.7c3.5,1.3,4.3,3.8,3,7.4l-0.3,0.9l-7.8-2.8c-1.1-0.4-2.1-0.8-2.1-1.1
		C380.6,507.4,380.7,506.9,381,506z"/>
	<path class="st0" d="M291.1,604.3l-0.9-15.4c-0.3-4.9-0.1-6.2,3.2-6.6l0-1.4c-3,0.5-5.7,0.8-8.5,1l-7.8,20.8l-9.5-20.7
		c-2.8-0.2-5.7-0.6-8.5-1l0,1.4c3.6,0.8,4,2.8,3.8,8.7l-0.2,9.1c-0.1,4.1-0.3,6.1-0.4,7.5c-0.2,1.7-1.5,1.6-3.2,1.6l-0.1,1.4
		c3.2,0.4,6.7,0.6,10.4,0.9l0-1.4c-2.8-0.1-3.7-0.7-4-2.3c-0.2-1.4-0.3-3.3-0.3-7.2l0-11.1h0.1l9.7,22.1l1.4,0l8.7-23.9l0.2,0
		l0.6,16.8c0.2,5,0.1,5.1-3.1,5.5l0,1.4c4.4-0.2,8.5-0.6,12.3-1.1l0-1.4C291.4,608.6,291.3,609.3,291.1,604.3z"/>
	<path class="st0" d="M322.1,597.4c-2.9-3.9-6.2-8.4-9.4-13l-5.1-7.2l-1.8,1.2l-1.7,24.6c-0.3,4.3-0.8,3.9-3.2,4.9l0.3,1.4
		c3-0.5,6.2-1.3,9.5-2.1l-0.4-1.4l-1.1,0.2c-2,0.4-2.2-0.1-2.2-2.4c0-2,0-4.1,0.1-5.4l7.3-2.2c1.1,1.4,2.5,3.4,3.5,4.7
		c1.3,1.6,1.2,2.2-0.3,2.8l-1,0.5l0.4,1.4c3.8-1.2,7.5-2.5,11.2-4l-0.4-1.4C325.5,600.4,324.8,601,322.1,597.4z M306.9,595.8
		l0.3-9.7l0.1,0l5.6,8L306.9,595.8z"/>
	<path class="st0" d="M354,556c-4-0.6-8.3,0.9-12.3,3.8c-3.3,2.6-6.9,5-10.6,7.3l0.8,1.2c2.6-1.6,3-1.5,5.9,2.4l9.5,13
		c2.9,3.9,2.8,4.4,0.2,6.6l0.8,1.2l8.7-6.4c8.1-6,11.8-14.7,5.3-23.5C360.1,558.1,356.8,556.5,354,556z M357.6,582.1
		c-2.5,1.8-3.4,1.3-5.9-2l-10.3-14c-0.7-1-1.2-1.8-1.1-2.1c0.1-0.3,0.8-1,1.8-1.7c4.9-3.6,10.5-4,16.2,3.8
		C362.7,572.1,362.6,578.4,357.6,582.1z"/>
	<path class="st0" d="M390.6,456.8c-4.8,0-5.2-0.3-5.4-3.3h-1.4v12.6h1.4c0.3-3.4,0.6-3.7,5.4-3.7h13.5c3.2,0,5.7,0.1,7.9,0.5
		c2.7,0.5,4.6,1.8,5.6,4.3l1.5-0.6c-0.5-1.8-1.4-3.7-2.4-5.2c-3.1-4.3-7.3-4.5-12.3-4.5H390.6z"/>
	<path class="st0" d="M408.9,434.3c1.9-0.7,2.4-0.5,2.6,1.1l0.2,1.1h1.4v-11.8h-1.4c-0.3,2.3-0.5,3-4.7,4.5
		c-4.5,1.6-9.9,3.5-15.2,5.3l-8.3,2.8l0.6,2.1l23,8.7c4,1.5,4.3,2.1,4.6,4.6h1.4v-9.7h-1.4l-0.1,1.1c-0.2,2-0.7,2.1-3,1.4
		c-1.9-0.6-3.9-1.1-5.2-1.6v-7.6C405.1,435.7,407.4,434.9,408.9,434.3z M401.2,443.4l-9.2-3v-0.1l9.2-3.1V443.4z"/>
	<path class="st0" d="M204.1,548.9l0.3-0.6c0.4-0.9,0.3-1.5-0.4-1.9l-6.9-4.6l-0.7,0.8l5.8,6.6C202.8,549.9,203.4,550,204.1,548.9z"
		/>
	<path class="st0" d="M197,547.2c-6.9-7.7-16.4-5.6-21.7-0.8c-6.1,5.5-7.3,14-1.7,20.3c5.7,6.3,14.5,6.8,21.5,0.5
		C201.7,561.5,202.2,552.9,197,547.2z M189.9,563.5c-6.2,5.5-11.1,5.9-14.1,2.6c-3.8-4.3-1.1-10.6,4.7-15.8c5.8-5.2,11.3-6,14.3-2.6
		C198.4,551.8,196.5,557.6,189.9,563.5z"/>
	<path class="st0" d="M138.8,425.1c0,10.1,5,18.2,16,18.2c4,0,7.3-1.7,9.3-3.7c2.9-2.9,4.1-7.3,4.1-12.2v-12.8h-1.4
		c-0.3,3-0.7,3.4-5.5,3.4h-15.4c-4.8,0-5.3-0.3-5.6-3.7h-1.4V425.1z M146.1,423.5h17.5c1.2,0,2.2,0,2.3,0.3c0.2,0.3,0.3,1.2,0.3,2.4
		c0,6.1-3.1,10.8-12.7,10.8c-7.5,0-12.7-3.8-12.7-10C140.8,423.9,142,423.5,146.1,423.5z"/>
	<path class="st0" d="M230.9,573.8l0.6-1.2c-3.4-1.6-6.6-3.2-9.6-5l-0.8,1.2c2.3,1.6,3.2,2.6,2.5,4.1c-0.6,1.3-1.7,3.5-4.2,7.5
		l-4.2,6.7l-0.1,0l-3.4-26c-1.7-1.2-3.5-2.7-5.6-4.4l-0.9,1.2c1.4,1,1.5,2.5,1.7,3.8c0.1,1.3-0.5,2.2-2,4.7l-4.7,7.5
		c-2.5,4-4,5.9-4.9,7c-1,1.2-2.2,0.8-4.1-0.3l-0.8,1.2c2.9,2.3,5.8,4.4,8.8,6.4l0.8-1.2c-2.3-1.6-2.7-3-2-4.5
		c0.6-1.3,1.7-3.5,4.2-7.5l4.9-7.9l0.1,0l2.8,27.5l2.3,1.3l9-14.4c2.5-4,4-5.9,4.9-7C227.4,573.4,229,573,230.9,573.8z"/>
	<path class="st0" d="M406.2,492.7c3.9,1.7,3.6,2.6,3.6,4.8l1.4,0.3c0.6-3.4,1-6.6,1.3-9.8l-1.4-0.2l-0.2,1.2c-0.3,2-0.8,2-3,1.3
		c-1.9-0.7-3.8-1.3-5.1-1.9l0.4-7.6c1.7-0.6,4.1-1.2,5.6-1.7c2-0.6,2.6-0.4,2.8,1.2l0,1.1l1.5,0.1c0.2-3.7,0.2-7.5,0.2-11.9h-1.4
		c-0.4,2.3-0.4,3-4.6,4.2c-4.6,1.4-10,3-15.5,4.5l-8.5,2.4l0.5,2.1L406.2,492.7z M391.4,483.9l9.4-2.6l-0.3,6.3l-9.1-3.5
		L391.4,483.9z"/>
	<path class="st0" d="M245.2,577.5c-10-2.8-16.8,4.1-18.8,11c-2.2,7.9,1.4,15.8,9.5,18c8.2,2.3,15.9-2,18.5-11.1
		C256.8,587.1,252.6,579.6,245.2,577.5z M247.9,595.1c-2.2,8-6.2,11-10.5,9.8c-5.5-1.5-6.7-8.3-4.6-15.9c2.1-7.5,6.4-11.1,10.7-9.9
		C248.9,580.6,250.3,586.5,247.9,595.1z"/>
	<path class="st0" d="M166.6,238.7l0.2,1.5h1.4v-12.4h-1.4c-0.3,2.3-0.5,3-4.7,4.5c-4.2,1.5-15.2,5.6-23.3,8.6v2.3
		c9.1,3.2,22.3,8.5,23,8.8c4.4,1.8,4.7,2.3,5,4.9h1.4v-10.1h-1.4l-0.1,1.3c-0.2,1.9-0.8,2.3-3.8,1.3c-2.1-0.7-12.3-3.9-16.2-5.4
		c6.1-2.3,15.1-5.6,17.6-6.4C165.9,237,166.3,237.1,166.6,238.7z"/>
	<path class="st0" d="M149.8,297.6c-2.4,1.1-5,2.3-7.1,3.7c-2.6,1.7-3.8,3.1-4.1,8.4l-0.1,1.5l1.3,0.1c0.4-1.1,0.9-1.7,1.8-2.5
		c0.9-0.8,2.7-1.9,5.1-3.4c2.1-1.2,5.2-2.9,6.4-3.5c1.3,3.3,3.7,5.5,7.6,5.5c2.6,0,4.7-1.1,5.9-2.8c1.1-1.7,1.5-4,1.5-7.7v-11.6
		h-1.4c-0.3,3.1-0.7,3.4-5.5,3.4h-15.4c-4.8,0-5.3-0.3-5.6-3.6h-1.4v12.5h1.4c0.3-3.2,0.8-3.5,5.6-3.5h5.8v1
		C151.6,296.3,151.2,296.9,149.8,297.6z M153.3,294h11.1c1.8,0,1.9,0.1,1.9,2.1c0,2.4-1.7,5.4-6.1,5.4c-2.2,0-4.3-0.6-5.7-2.3
		c-0.8-1-1.2-2.2-1.2-4V294z"/>
	<path class="st0" d="M168.2,211.6h-1.4c-0.3,3.2-0.6,3.5-5.5,3.5h-15.6c-4.9,0-5.2-0.3-5.5-3.5h-1.4v12.6h1.4
		c0.3-3.2,0.6-3.5,5.5-3.5h15.6c4.9,0,5.2,0.3,5.5,3.5h1.4V211.6z"/>
	<path class="st0" d="M398.9,281.7c8.2,0,14.8-5.6,14.8-14c0-8.5-6.2-14.8-15.7-14.8c-8.7,0-14.8,6.1-14.8,13.7
		C383.2,277,391.7,281.7,398.9,281.7z M385.2,267.7c0-5.5,5.3-8.5,14.2-8.5c8.3,0,12.2,3,12.2,7.4c0,5.7-6.2,8.7-14,8.7
		C389.8,275.3,385.2,272.2,385.2,267.7z"/>
	<path class="st0" d="M152.5,170.4h3.3c4.7,0,7.3,0.3,8.6,0.4c1.6,0.2,2.2,1.3,2.3,3.4h1.4v-10.8h-1.4c-0.1,2.9-0.7,4-2.3,4.2
		c-1.4,0.2-3.9,0.4-8.6,0.4h-3c-7.7,0-11.7-2.4-11.7-7.5c0-4.8,3.8-7.4,10.8-7.4h9.2c4.8,0,5.2,0.7,5.5,3.9h1.4v-12.8h-1.4
		c-0.3,3.3-0.7,3.3-5.5,3.3h-10.1c-5.2,0-8.5,1-10.4,3.3c-1.8,2.1-2.4,5.5-2.4,8.4c0,3,1.2,6.2,3.3,8.1
		C144.3,169.7,148.2,170.4,152.5,170.4z"/>
	<path class="st0" d="M168.2,184.6v-7.5h-1.4c-0.1,1.8-0.4,2.8-1.5,3.6c-1.1,0.8-2.2,0.8-5.1,0.8h-8.9c-4.7,0-7.4-0.3-8.7-0.4
		c-1.6-0.2-2.2-1.2-2.3-3.4h-1.4v10.6h1.4c0.1-2.8,0.7-3.9,2.3-4.1c1.4-0.2,4-0.4,8.7-0.4h9.3v0.1l-21.7,17v2.6h17
		c4.7,0,7.3,0.3,8.6,0.4c1.6,0.2,2.2,1.2,2.3,3.4h1.4v-10.7h-1.4c-0.1,2.8-0.7,3.9-2.3,4.1c-1.4,0.2-3.9,0.4-8.6,0.4h-7.9v-0.1
		L168.2,184.6z"/>
	<path class="st0" d="M407.2,167.6c4,1.5,4.3,2.1,4.6,4.6h1.4v-9.7h-1.4l-0.1,1.1c-0.2,2-0.7,2.1-3,1.4c-1.9-0.6-3.9-1.1-5.2-1.6
		v-7.6c1.7-0.6,4-1.5,5.5-2c1.9-0.7,2.4-0.5,2.6,1.1l0.2,1.1h1.4v-11.8h-1.4c-0.3,2.3-0.5,3-4.7,4.5c-4.5,1.6-9.9,3.5-15.2,5.3
		l-8.3,2.8l0.6,2.1L407.2,167.6z M391.9,159.6l9.2-3.1v6.3l-9.2-3V159.6z"/>
	<path class="st0" d="M153.7,496.3l9.3-2.9c4.4-1.4,4.9-0.8,5.8,2.2l1.4-0.3c-0.8-4.3-1.4-8.5-1.7-12.5L167,483
		c0.5,3.2-0.6,3.5-5.2,5l-10.1,3.1c-5.1,1.5-7.7,3.4-9.1,6.1c-1.3,2.5-1.2,5.4-0.6,8.2c2.6,11.5,12.3,8.7,16.4,7.5
		c0,0,10.2-3.5,11.6-3.6c1.6-0.2,2.8,0.6,3.4,2.6l1.4-0.4c-1.2-3.3-2.2-6.7-3.2-10.2l-1.4,0.3c0.5,2.8,0.5,4.1-0.9,4.6
		c-1.3,0.5-11.3,4-11.3,4c-6.8,2.2-11.8,0.7-12.9-4.2C143.9,501.4,147,498.3,153.7,496.3z"/>
	<path class="st0" d="M169.1,518.2c2.2-0.5,3.6-0.5,4.4-0.3c1,0.3,1.7,1.2,3.2,4.3l0.4,1l-18.2,8.4c-4.4,2-5,1.9-6.8-1.3l-1.3,0.6
		c2,4.4,4.2,8.6,6.5,12.5l1.3-0.6c-1.4-3.6-1.7-4.1,2.7-6.1l18.4-8.5c1.8,3.2,3.1,4.7,2.7,5.6c-0.4,0.9-1.4,1.9-3.4,3.3l0.8,1.3
		c2.7-1.5,5.8-3.1,7.5-4l-0.3-0.7c-1.1-0.3-1.4-0.7-2-1.7c-3.1-4.8-5.7-9.9-8-15.1c-0.5-1.1-0.6-1.5,0-2.6l-0.3-0.7
		c-2.1,0.9-5.1,2.1-8.1,3.3L169.1,518.2z"/>
	<path class="st0" d="M168.2,259.6h-1.4c-0.3,3.1-0.7,3.4-5.5,3.4h-15.4c-4.8,0-5.3-0.3-5.6-3.9h-1.4v21.2c1.2,0.4,6,1.2,7.7,1.5
		l0.3-1.5c-2.1-0.7-3.9-1.4-4.7-2.1c-1.1-0.9-1.2-2.9-1.2-4.9c0-1.8-0.2-2.9,0.2-3.6c0.5-0.9,1.6-1.1,4.8-1.1h7v3.1
		c0,3.7-0.2,3.8-3.8,4.3v1.5h9.8V276c-3.5-0.4-3.8-0.6-3.8-4.3v-3.1h9.3c1.6,0,1.6,0.1,1.6,1.7v1.7c0,2.5-0.3,4-1,4.6
		c-0.7,0.7-2.1,1.2-4.2,1.6l0.1,1.5c3-0.2,6.3-0.4,7.1-0.5V259.6z"/>
	<path class="st0" d="M390.7,184.5h15.6c4.9,0,5.2,0.3,5.5,3.5h1.4v-12.6h-1.4c-0.3,3.2-0.6,3.5-5.5,3.5h-15.6
		c-4.9,0-5.2-0.3-5.5-3.5h-1.4V188h1.4C385.5,184.8,385.8,184.5,390.7,184.5z"/>
	<path class="st0" d="M147.6,332c4.8,0,7.2-3.2,8.7-6.6l0.6-1.4c1.4-3.1,3-4.7,5.3-4.7c2.5,0,4.5,1.5,4.5,4.2c0,3.7-3.2,4.9-5.8,5.8
		l0.3,1.6c2.7-0.4,4.7-0.7,6.3-0.9c0.2-0.5,0.4-1.2,0.6-1.9c0.5-1.3,0.6-2.7,0.6-3.9c0-6-4-9.5-8.8-9.5c-4.3,0-6.9,3-8.5,6.7
		l-0.4,0.9c-1.5,3.3-3,4.8-6,4.8c-2.6,0-4.7-1.6-4.7-4.4c0-4.3,4.8-6.7,7.3-7.4l-0.6-1.5c-2.7,0.5-5.8,1-6.9,1.3
		c-0.3,0.6-0.6,1.4-1,2.6c-0.4,1.2-0.7,2.7-0.7,4.3C138.3,328,142.3,332,147.6,332z"/>
	<path class="st0" d="M402.2,238.2c2.4-1.1,5.1-2.3,7.1-3.6c2.6-1.7,3.8-3.1,4.1-8.4l0.1-1.6l-1.4-0.1c-0.4,1.1-0.9,1.7-1.9,2.5
		c-0.9,0.8-2.7,1.9-5.1,3.4c-2.1,1.2-5.2,2.9-6.5,3.5c-1.3-3.3-3.7-5.5-7.6-5.5c-2.6,0-4.7,1.1-5.8,2.8c-1.1,1.7-1.5,4-1.5,7.7v11.6
		h1.4c0.3-3.1,0.6-3.4,5.5-3.4h15.6c4.9,0,5.2,0.3,5.5,3.6h1.4v-12.5h-1.4c-0.3,3.2-0.6,3.5-5.5,3.5h-5.8v-1
		C400.4,239.4,400.8,238.8,402.2,238.2z M398.7,241.7h-11.1c-1.8,0-1.9-0.1-1.9-2.1c0-2.4,1.6-5.4,6.1-5.4c2.2,0,4.3,0.6,5.7,2.3
		c0.9,1,1.2,2.2,1.2,4V241.7z"/>
	<path class="st0" d="M387.5,195.6c-1.6-0.2-2.2-1.2-2.3-3.4h-1.4v10.7h1.4c0.1-2.8,0.7-3.9,2.3-4.1c1.4-0.2,3.9-0.4,8.6-0.4h8v0.1
		l-20.3,16.6v7.5h1.4c0.1-1.8,0.5-2.8,1.5-3.6c1.1-0.8,2.2-0.8,5.1-0.8h9c4.7,0,7.2,0.3,8.6,0.4c1.6,0.2,2.2,1.2,2.3,3.4h1.4v-10.7
		h-1.4c-0.1,2.8-0.7,3.9-2.3,4.1c-1.4,0.2-3.9,0.4-8.6,0.4h-9.4v-0.1l22.1-17V196h-17.3C391.4,196,388.9,195.8,387.5,195.6z"/>
	<path d="M257.6,542.9c2.6,1.8,8,10,18.4,10v0l0,0c10.4,0,15.8-8.1,18.4-10c8-5.7,17.1-6.3,27.4-1.4l3.3,1.6v-59.5l-4.5-2.2v54.7
		c-10.5-4.1-20.3-2.8-28.7,3.2c-3.8,2.7-8.4,9.1-15.7,9.1h0c-7.3,0-11.9-6.4-15.7-9.1c-8.4-6-18.3-7.3-28.7-3.2v-54.7l-4.5,2.2V543
		l3.3-1.6C240.5,536.5,249.7,537.2,257.6,542.9z"/>
	<path d="M273.9,276.6c0.3,0.1,0.9-1.2,0.5-1.4c-2.2-0.8-5.5-0.7-6-0.6c-0.5,0.1-1.6,0.8-2.1,1.1c-0.3,0.2-0.1,1,0.7,0.7
		c0.4-0.2,1.2-0.4,2-0.5C270.6,276,272.5,276.3,273.9,276.6z"/>
	<path d="M273.8,285.7c0.6,0.2,1.5,0.7,2.2,0.7v0l0,0c0,0,0,0,0,0l0,0c0.7,0,1.6-0.5,2.2-0.7c0.6-0.2,0.1-0.8-0.5-0.8
		c-0.6,0-1.2,0.3-1.7,0.3c-0.5,0-1.1-0.3-1.7-0.3C273.7,284.9,273.2,285.5,273.8,285.7z"/>
	<path d="M278.7,342.7c0.3,0.1,0.5,0.3,0.7,0.5c0.2,0.3,0.5,0.7,0.7,1.1c1.2,2.4,1.9,6.7,5.2,8.9c0.3,0.2,0.5,0.1,0.6-0.1
		c0,0,0,0,0,0c0.1-0.2,0.1-0.4-0.1-0.6c0,0,0,0,0,0c-0.5-0.4-0.8-0.8-1.2-1.3c0,0,0,0,0,0c-2.3-3.4-1.8-8.4-5.8-9.3
		C278.4,341.7,278.1,342.5,278.7,342.7z"/>
	<path d="M278.3,280.8c0-0.3,0-1.7,0.2-1.8c0.2,0,0.6,0.1,1.4,0.3c0.1,0,0.1,0.1,0.2,0.1c0.9,0.2,2.2,0.1,2.7-0.2
		c0.4-0.2,1.1-0.7,1.1-1.6c0-0.2-1.7-0.8-4.2-0.3c0,0-0.1,0-0.1,0h0c-0.3,0-0.1-1.1,0.7-1.2c0.9-0.1,1.9-0.2,2.8-0.2
		c0.8,0,1.6,0.3,2,0.5c0.7,0.3,0.9-0.5,0.7-0.7c-0.5-0.4-1.6-1-2.1-1.1c-0.5-0.1-3.8-0.2-6,0.6c0,0,0,0,0,0c0,0-0.1,0-0.1,0.1l0,0
		c0,0,0,0,0,0.1c-0.1,0.4-0.2,1.4-0.2,2.1c0,0.3,0.1,3.2,0.3,4C277.6,282,278.3,281.2,278.3,280.8z"/>
	<path d="M267.2,351.1C267.2,351.2,267.1,351.2,267.2,351.1c-0.4,0.5-0.7,1-1.2,1.4c0,0,0,0,0,0c-0.2,0.1-0.2,0.4-0.1,0.6
		c0,0,0,0,0,0c0.1,0.2,0.4,0.3,0.6,0.1c3.3-2.2,4-6.5,5.2-8.9c0.3-0.4,0.5-0.8,0.7-1.1c0.2-0.2,0.5-0.4,0.7-0.5
		c0.6-0.2,0.3-1-0.3-0.9C269,342.7,269.5,347.7,267.2,351.1z"/>
	<path d="M280.6,311.1c1.6-1.2,3.8-2.7,7.6-3.5c0.5-0.1,0.5-1-0.1-0.9c-2.4,0.3-6.5,0.8-8.5,3.1
		C278.8,310.6,279.6,311.8,280.6,311.1z"/>
	<path d="M263.8,307.6c3.8,0.7,6,2.2,7.6,3.5c0.9,0.7,1.8-0.5,1-1.3c-2.1-2.3-6.1-2.8-8.5-3.1C263.3,306.6,263.3,307.5,263.8,307.6z
		"/>
	<path d="M233.2,299.6c1.6,2.7,3.5,5.3,5.5,7.8c2,2.5,4.2,4.8,6.6,6.9c0,3.8,3.7,15.2,6.4,19c-0.3,4.4,1.3,12.3,2.3,16
		c-0.8,4.9-1.1,14-0.4,17.3c-2.6,9.7-3.7,17.9-3.7,26.6c-0.1,19.6,7.6,38.5,7.4,49.2c-0.1,10.4-2,14.5-1.8,22.5
		c0.1,14.5,8.8,34.9,8.8,44c0,5.1-3.4,16.1-3.7,20.7c-0.1,1.6,0.1,3.5,0.9,5.2c1.7,3.6,8.3,8.9,12.8,8.9h1.7h1.7
		c4.5,0,11.1-5.3,12.8-8.9c0.8-1.7,1-3.6,0.9-5.2c-0.3-4.6-3.7-15.7-3.7-20.7c0-9,8.7-29.4,8.7-44c0.3-8-1.6-12.1-1.8-22.5
		c-0.2-10.7,7.5-29.6,7.4-49.2c0-8.7-1.1-17-3.7-26.6c0.7-3.3,0.4-12.4-0.4-17.3c1-3.6,2.6-11.6,2.3-16c2.7-3.8,6.3-15.2,6.4-19
		c2.4-2,4.6-4.4,6.7-6.9c2-2.5,3.9-5.2,5.5-7.8c3.5-5.7,6-11.3,7.3-15.3c4.2-4.3,7.5-9.1,10.3-14c1.5-2.6,2.9-5.3,4.2-7.9
		c3.4-7,6.3-14,9.6-20.1c0.5-0.9,1-1.9,1.4-3c0.8-1.8,1.6-3.9,2.3-6.3c1.1-3.8,1.9-8.5,2.1-14.8c0.2-5.8-6-6.7-8-2.8
		c-0.6,1.2-2.3,4.8-2.5,5.3c-1.5-0.1-2.5,1.3-3.4,2.9c-0.3,0.5-0.6,1.1-0.9,1.6c-0.6,1-2,2.8-3,5.1c-0.9,2.3-1.3,5.1,0.2,7.9
		c-0.8,4.9-3.4,7.5-6.9,10.7c-2,1.8-4.3,3.7-6.7,6.4c-3.7,4-7.9,9.6-12,18.6c-0.3,0.4-0.8,0.8-1.2,1.3c-1.8,1.8-4.5,3.9-7.2,6.6
		c-3,2.9-6.1,6.4-8.5,10.8c-1.8,0.9-6.2,1.1-9,2.7c0,0,0-2.7,0-2.8c2.3-4.4,3.6-11.3,4.4-18.5c0.7-6.5-3.6-15.9-15.1-15.9
		c-11.5,0-15.8,9.4-15.1,15.9c0.7,7.2,2.1,14.1,4.3,18.5c0,0.1,0,2.8,0,2.8c-2.8-1.6-7.2-1.8-9-2.7c-2.3-4.3-5.4-7.8-8.4-10.7
		c-2.7-2.6-5.3-4.8-7.2-6.6c-0.5-0.5-0.9-0.9-1.3-1.3c-4.1-9-8.2-14.6-11.9-18.6c-2.5-2.7-4.7-4.6-6.7-6.4c-3.6-3.2-6.2-5.7-7-10.7
		c1.5-2.8,1.1-5.5,0.2-7.8c-0.9-2.3-2.4-4.2-3-5.2c-0.3-0.5-0.6-1-0.9-1.5c-0.9-1.6-2-3.1-3.5-2.9c-0.1-0.5-1.8-4.1-2.5-5.3
		c-2-3.9-8.2-3-8,2.8c0.2,6.3,1,11,2.1,14.8c0.7,2.4,1.5,4.5,2.3,6.3c0.5,1,0.9,2,1.4,2.9c3.3,6.2,6.2,13.2,9.6,20.2
		c1.3,2.7,2.7,5.3,4.2,7.9c2.8,4.9,6.1,9.6,10.3,13.9C227.2,288.3,229.7,293.9,233.2,299.6z M265,275.5c0-0.6-0.1-1.2-0.1-1.8
		c-0.1-3.6,0.8-6.4,2.8-8.5c2-2,4.9-3.2,8.3-3.2h0h0h0c3.4,0,6.3,1.1,8.3,3.2c2,2.1,2.9,4.9,2.8,8.5c0,0.6-0.1,1.3-0.1,1.8
		c-0.3,3.3-1.3,9.4-2.3,12.3c-1.4,3.7-5,7.3-5.7,7.8c-0.6,0.5-2.1,0.6-3,0.6h0h0c-0.9,0-2.4-0.1-3-0.6c-0.6-0.5-4.3-4.1-5.7-7.8
		C266.2,285,265.3,278.8,265,275.5z M207.2,246.3c-0.1-0.2-0.3-0.7-0.6-1.4c-1.4-3.3-4.8-11.1-5.5-13.3c-0.4-1.3-1.1-6.7-1.5-10.3
		c0.5-0.1,0.9,0.1,1,0.6c0.5,1.6,1.5,6.9,2,7.4c0.5,0.6,3.3,3.2,4,4.1c0.8,1,1.3,2,1.3,2.5c0,0.5,0.5,0.4,0.5,0.1
		c0-0.3,0.4-2.7-1.2-4.3c-1.5-1.5-3.2-2.6-3.7-3.1c-0.1-0.3-0.7-4.3-1.6-7.2c-0.4-1.3-1.7-1.3-2.5-1.2c0-0.4-0.1-0.7-0.1-1
		c-0.1-2.1,0.1-2.6,0.3-2.8c0,0,0.1-0.1,0.3,0c0.9,0.1,1.9,1.8,2.7,4.3l0.2,0.7c0.5,1.6,1.1,3.4,2.7,6.1c0.1,0.2,0.4,0.3,0.6,0.2
		c0.2-0.1,0.3-0.4,0.2-0.6c-0.6-1.1-1.1-2-1.4-2.8c0.8,0.1,1.4,0.5,1.9,2.1c0.5,1.6,1.5,2.8,2.3,3.7c0.2,0.3,0.5,0.5,0.6,0.8
		c2.3,3.3,0.5,6.5,0.4,6.6c-0.1,0.1-0.1,0.2-0.1,0.3c0.3,1.8,1.3,4.2,2.1,5.7c1.2,2.4,3.2,5,5.8,7.4c7.7,7.4,13.5,14.1,18.4,24.8
		c0,0,0,0.1,0.1,0.1c1.2,1.4,3,3.2,5.1,5.3c4.5,4.6,10.1,10.2,12.1,14.1c0,0.1,0.1,0.1,0.1,0.2c0.9,0.6,2.4,1,4.1,1.5
		c3.3,1,7.4,2.2,10.2,5.3c0.1,0.1,0.1,0.1,0.2,0.1c0.3,0.6,0.8,1.3,1.4,1.9c0.1,0.1,0.2,0.1,0.3,0.1c0.1,0,0.2,0,0.3-0.1
		c0.2-0.2,0.2-0.5,0-0.6c-1.6-1.7-1.8-3.2-1.9-3.8c-0.2-1.2-0.1-2.5,0-3.8c0-0.3,0.1-0.7,0.1-1c1.5,1.3,3.5,2.9,4.3,3.1
		c1.2,0.2,2.9,0.2,3.1,0.2c0.2,0,1.9,0,3.1-0.2c0.9-0.1,2.8-1.7,4.3-3.1c0,0.3,0.1,0.7,0.1,1c0.1,1.3,0.2,2.6,0,3.8
		c-0.1,0.5-0.3,2.1-1.9,3.8c-0.2,0.2-0.2,0.5,0,0.6c0.1,0.1,0.2,0.1,0.3,0.1c0.1,0,0.2,0,0.3-0.1c0.6-0.7,1.1-1.3,1.4-1.9
		c0.1,0,0.1-0.1,0.2-0.1c2.8-3.1,6.9-4.3,10.2-5.3c1.7-0.5,3.2-0.9,4.1-1.5c0.1,0,0.1-0.1,0.2-0.2c2.1-3.9,7.6-9.5,12.1-14.1
		c2.1-2.1,3.9-4,5.1-5.3c0,0,0-0.1,0.1-0.1c4.9-10.7,10.6-17.4,18.4-24.8c2.6-2.5,4.6-5,5.8-7.4c0.8-1.6,1.7-3.9,2.1-5.7
		c0-0.1,0-0.2-0.1-0.3c-0.1-0.1-1.9-3.3,0.4-6.6c0.2-0.2,0.4-0.5,0.6-0.8c0.7-0.9,1.8-2.1,2.3-3.7c0.5-1.5,1.1-2,1.9-2.1
		c-0.4,0.8-0.8,1.7-1.4,2.8c-0.1,0.2-0.1,0.5,0.2,0.6c0.2,0.1,0.5,0.1,0.6-0.2c1.6-2.8,2.2-4.5,2.7-6.1l0.2-0.7
		c0.8-2.5,1.9-4.1,2.7-4.3c0.2,0,0.3,0,0.3,0c0.1,0.1,0.4,0.7,0.3,2.8c0,0.3,0,0.6-0.1,1c-0.8-0.1-2.1-0.1-2.5,1.2
		c-0.9,2.9-1.5,6.9-1.6,7.2c-0.5,0.5-2.2,1.6-3.7,3.1c-1.6,1.6-1.2,4-1.2,4.3c0,0.3,0.5,0.4,0.5-0.1c0-0.5,0.5-1.6,1.3-2.5
		c0.8-1,3.5-3.6,4-4.1c0.5-0.5,1.5-5.8,2-7.4c0.2-0.6,0.6-0.8,1-0.6c-0.3,3.6-1,9-1.5,10.3c-0.7,2.2-4,9.9-5.5,13.3
		c-0.3,0.7-0.5,1.3-0.6,1.4c-3.4,8.1-15.3,30.1-22.2,35.7c-0.1,0.1-0.1,0.1-0.1,0.2c-3.4,11.7-15.6,26.4-19.6,30.4
		c-0.1,0.1-0.1,0.2-0.1,0.3c-0.6,5.8-4,14.4-5.3,17c-1.6,3-4.1,3.9-7.7,3.8c-0.5,0-1-0.1-1.5-0.1c-0.9-0.1-1.8-0.2-2.7-0.4
		c-0.2,0-0.5,0.1-0.5,0.4c0,0.2,0,0.3,0.2,0.4c0,0.1,0.1,0.1,0.2,0.1c0.4,0.1,2.4,0.6,5.9,1c2.5,0.3,3.8,0.1,4.7-0.4
		c-0.1,4.2-0.6,10-2,14c-0.9,2.2-2.2,5-3.2,6.3c-0.3,0.3,0.1,0.8,0.5,0.5c0.7-0.5,2.1-1.5,3.1-2.7c0.3,3.9,0.2,7.8,0.1,10.7
		c-0.2,1.8-1,6.6-2.8,9.6c-0.3,0.4,0.2,1.1,0.7,0.7c0.5-0.4,2-2.7,2.7-3.9c1.7,6.5,4.2,16.2,2,34.8c-1.6,13.9-3.1,20.5-4.2,25.4
		c-0.6,2.7-1,4.7-1.3,7.1c-0.8,6.6-0.3,11.8,0.1,16.8c0.3,3.6,0.6,7,0.4,10.8c-0.7,13.4-3,22.2-4.9,29.3c-1.2,4.6-2.3,8.5-2.5,12.5
		c-0.2,4,0,8.5,0.6,11.4c1.2,5.8,1.9,10.8,1.8,13.1c-0.1,3.3-4.2,6.6-6.8,8c-0.7,0.2-1.4,0.3-1.8,0.1c-0.1-0.1-0.5-0.2-0.5-1.1
		c-0.2-4.7,0.1-12.8,0.4-18.2c0.1-2.3,0.2-4.2,0.2-5c0-1.4-0.2-4.8-0.5-9.2c-0.4-6.2-0.9-13.9-0.9-18.5c0-3.8,0.3-6.1,0.5-8.6
		c0.3-2.5,0.6-5.1,0.6-9.3c0-4.8-0.4-10.4-0.7-14.8c-0.2-3.1-0.4-5.7-0.4-7.2c0-2.7,0.2-4.1,0.4-5.5c0.2-1.2,0.3-2.3,0.3-4.1
		c0-2.1-0.2-4.1-0.5-5.9c-0.2-1.3-0.3-2.4-0.3-3.4c0-0.3,0-0.7,0-1.1c0-6.4,0.4-28.9,0.9-33.6c4.5-1,5.6-5.9,8.1-9
		c0.3-0.4,0.7-0.8,1-1.1c0.2-0.2,0.4-0.4,0.7-0.6c0.5-0.4-0.1-1.1-0.6-0.8c-5.3,3.2-5.5,9.5-10.9,9.6h0h0c-5.3,0-5.6-6.3-10.9-9.6
		c-0.5-0.3-1.1,0.4-0.6,0.8c0.2,0.2,0.5,0.4,0.7,0.6c0.3,0.3,0.6,0.7,1,1.1c2.4,3.2,3.6,8,8.1,9c0.4,4.7,0.9,27.2,0.9,33.6
		c0,0.4,0,0.8,0,1.1c0,0.9-0.2,2.1-0.3,3.4c-0.2,1.8-0.5,3.8-0.5,5.9c0,1.7,0.2,2.9,0.4,4.1c0.2,1.4,0.4,2.9,0.4,5.5
		c0,1.6-0.2,4.2-0.4,7.2c-0.3,4.5-0.7,10-0.7,14.8c0,4.1,0.3,6.7,0.6,9.3c0.3,2.5,0.5,4.9,0.5,8.6c0,4.6-0.5,12.3-0.9,18.5
		c-0.3,4.3-0.5,7.7-0.5,9.2c0,0.8,0.1,2.6,0.2,5c0.2,5.4,0.5,13.6,0.4,18.2c0,0.9-0.4,1.1-0.5,1.1c-0.4,0.2-1.1,0.1-1.8-0.1
		c-2.6-1.4-6.7-4.7-6.8-8c-0.1-2.3,0.6-7.3,1.8-13.1c0.6-2.9,0.8-7.3,0.6-11.4c-0.2-4-1.3-7.9-2.5-12.5c-1.9-7.1-4.3-15.9-4.9-29.3
		c-0.2-3.8,0.1-7.2,0.4-10.8c0.4-5,0.8-10.2,0.1-16.8c-0.3-2.4-0.7-4.5-1.3-7.1c-1.1-4.8-2.5-11.5-4.2-25.4
		c-2.2-18.6,0.3-28.4,2-34.8c0.7,1.3,2.2,3.5,2.7,3.9c0.5,0.4,1-0.3,0.7-0.7c-1.7-3-2.6-7.9-2.8-9.6c-0.1-3-0.2-6.8,0.1-10.7
		c1,1.2,2.4,2.3,3.1,2.7c0.4,0.3,0.8-0.2,0.5-0.5c-1-1.3-2.4-4-3.2-6.3c-1.4-4-1.9-9.8-2-14c0.9,0.6,2.2,0.7,4.7,0.4
		c3.5-0.4,5.6-0.9,5.9-1c0.1,0,0.1-0.1,0.2-0.1c0.1-0.1,0.2-0.3,0.2-0.4c0-0.2-0.3-0.4-0.5-0.4c-1,0.2-1.9,0.3-2.7,0.4
		c-0.5,0-1,0.1-1.5,0.1c-3.5,0.1-6.1-0.8-7.7-3.8c-1.3-2.6-4.7-11.2-5.3-17c0-0.1-0.1-0.2-0.1-0.3c-4-4-16.2-18.7-19.6-30.4
		c0-0.1-0.1-0.2-0.1-0.2C222.5,276.3,210.6,254.4,207.2,246.3z"/>
	<path d="M272.4,277.4c-2.5-0.5-4.2,0.1-4.2,0.3c0,1,0.7,1.4,1.1,1.6c0.5,0.2,1.8,0.4,2.7,0.2c0.5-0.1,1.2-0.7,1.4-0.9
		C273.6,278.4,272.8,277.4,272.4,277.4z"/>
	<path class="st0" d="M229.5,282c0.1,0.1,0.1,0.1,0.1,0.2c3.4,11.7,15.6,26.4,19.6,30.4c0.1,0.1,0.1,0.2,0.1,0.3
		c0.6,5.8,4,14.4,5.3,17c1.6,3,4.1,3.9,7.7,3.8c0.5,0,1-0.1,1.5-0.1c0.9-0.1,1.8-0.2,2.7-0.4c0.2,0,0.5,0.1,0.5,0.4
		c0,0.2,0,0.3-0.2,0.4c0,0.1-0.1,0.1-0.2,0.1c-0.4,0.1-2.4,0.6-5.9,1c-2.5,0.3-3.8,0.1-4.7-0.4c0.1,4.2,0.6,10,2,14
		c0.9,2.2,2.2,5,3.2,6.3c0.3,0.3-0.1,0.8-0.5,0.5c-0.7-0.5-2.1-1.5-3.1-2.7c-0.3,3.9-0.2,7.8-0.1,10.7c0.2,1.8,1,6.6,2.8,9.6
		c0.3,0.4-0.3,1.1-0.7,0.7c-0.5-0.4-2-2.7-2.7-3.9c-1.7,6.5-4.2,16.2-2,34.8c1.6,13.9,3.1,20.5,4.2,25.4c0.6,2.7,1,4.7,1.3,7.1
		c0.8,6.6,0.3,11.8-0.1,16.8c-0.3,3.6-0.6,7-0.4,10.8c0.7,13.4,3,22.2,4.9,29.3c1.2,4.6,2.3,8.5,2.5,12.5c0.2,4,0,8.5-0.6,11.4
		c-1.2,5.8-1.9,10.8-1.8,13.1c0.1,3.3,4.2,6.6,6.8,8c0.7,0.2,1.4,0.3,1.8,0.1c0.1-0.1,0.5-0.2,0.5-1.1c0.2-4.7-0.2-12.8-0.4-18.2
		c-0.1-2.3-0.2-4.2-0.2-5c0-1.4,0.2-4.8,0.5-9.2c0.4-6.2,0.9-13.9,0.9-18.5c0-3.8-0.3-6.1-0.5-8.6c-0.3-2.5-0.6-5.1-0.6-9.3
		c0-4.8,0.4-10.4,0.7-14.8c0.2-3.1,0.4-5.7,0.4-7.2c0-2.7-0.2-4.1-0.4-5.5c-0.2-1.2-0.4-2.3-0.4-4.1c0-2.1,0.2-4.1,0.5-5.9
		c0.2-1.3,0.3-2.4,0.3-3.4c0-0.3,0-0.7,0-1.1c0-6.4-0.4-28.9-0.9-33.6c-4.5-1-5.6-5.9-8.1-9c-0.3-0.4-0.7-0.8-1-1.1
		c-0.2-0.2-0.4-0.4-0.7-0.6c-0.5-0.4,0.1-1.1,0.6-0.8c5.3,3.2,5.5,9.5,10.9,9.6h0h0c5.3,0,5.6-6.3,10.9-9.6c0.5-0.3,1.1,0.4,0.6,0.8
		c-0.2,0.2-0.5,0.4-0.7,0.6c-0.3,0.3-0.6,0.7-1,1.1c-2.5,3.2-3.6,8-8.1,9c-0.4,4.7-0.9,27.2-0.9,33.6c0,0.4,0,0.8,0,1.1
		c0,0.9,0.1,2.1,0.3,3.4c0.2,1.8,0.5,3.8,0.5,5.9c0,1.7-0.2,2.9-0.3,4.1c-0.2,1.4-0.4,2.9-0.4,5.5c0,1.6,0.2,4.2,0.4,7.2
		c0.3,4.5,0.7,10,0.7,14.8c0,4.1-0.3,6.7-0.6,9.3c-0.3,2.5-0.5,4.9-0.5,8.6c0,4.6,0.5,12.3,0.9,18.5c0.3,4.3,0.5,7.7,0.5,9.2
		c0,0.8-0.1,2.6-0.2,5c-0.2,5.4-0.6,13.6-0.4,18.2c0,0.9,0.4,1.1,0.5,1.1c0.4,0.2,1.2,0.1,1.8-0.1c2.6-1.4,6.7-4.7,6.8-8
		c0.1-2.3-0.6-7.3-1.8-13.1c-0.6-2.9-0.8-7.3-0.6-11.4c0.2-4,1.3-7.9,2.5-12.5c1.9-7.1,4.3-15.9,4.9-29.3c0.2-3.8-0.1-7.2-0.4-10.8
		c-0.4-5-0.8-10.2-0.1-16.8c0.3-2.4,0.7-4.5,1.3-7.1c1.1-4.8,2.5-11.5,4.2-25.4c2.2-18.6-0.3-28.4-2-34.8c-0.7,1.3-2.2,3.5-2.7,3.9
		c-0.5,0.4-1-0.3-0.7-0.7c1.7-3,2.6-7.9,2.8-9.6c0.1-3,0.2-6.8-0.1-10.7c-1,1.2-2.4,2.3-3.1,2.7c-0.4,0.3-0.8-0.2-0.5-0.5
		c1-1.3,2.4-4,3.2-6.3c1.4-4,1.9-9.8,2-14c-0.9,0.6-2.2,0.7-4.7,0.4c-3.6-0.4-5.6-0.9-5.9-1c-0.1,0-0.1-0.1-0.2-0.1
		c-0.1-0.1-0.2-0.3-0.2-0.4c0-0.2,0.3-0.4,0.5-0.4c1,0.2,1.9,0.3,2.7,0.4c0.5,0,1,0.1,1.5,0.1c3.5,0.1,6.1-0.8,7.7-3.8
		c1.3-2.6,4.7-11.2,5.3-17c0-0.1,0.1-0.2,0.1-0.3c4-4,16.2-18.7,19.6-30.4c0-0.1,0.1-0.2,0.1-0.2c7-5.7,18.8-27.6,22.2-35.7
		c0.1-0.2,0.3-0.7,0.6-1.4c1.4-3.3,4.8-11.1,5.5-13.3c0.4-1.3,1.1-6.7,1.5-10.3c-0.5-0.1-0.9,0.1-1,0.6c-0.5,1.6-1.5,6.9-2,7.4
		c-0.5,0.6-3.3,3.2-4,4.1c-0.8,1-1.3,2-1.3,2.5c0,0.5-0.5,0.4-0.5,0.1c0-0.3-0.4-2.7,1.2-4.3c1.5-1.5,3.2-2.6,3.7-3.1
		c0.1-0.3,0.7-4.3,1.6-7.2c0.4-1.3,1.7-1.3,2.5-1.2c0-0.4,0-0.7,0.1-1c0.1-2.1-0.1-2.6-0.3-2.8c0,0-0.1-0.1-0.3,0
		c-0.9,0.1-1.9,1.8-2.7,4.3l-0.2,0.7c-0.5,1.6-1.1,3.4-2.7,6.1c-0.1,0.2-0.4,0.3-0.6,0.2c-0.2-0.1-0.3-0.4-0.2-0.6
		c0.6-1.1,1.1-2,1.4-2.8c-0.8,0.1-1.4,0.5-1.9,2.1c-0.5,1.6-1.5,2.8-2.3,3.7c-0.2,0.3-0.5,0.5-0.6,0.8c-2.3,3.3-0.5,6.5-0.4,6.6
		c0.1,0.1,0.1,0.2,0.1,0.3c-0.3,1.8-1.3,4.2-2.1,5.7c-1.2,2.4-3.2,5-5.8,7.4c-7.7,7.4-13.5,14.1-18.4,24.8c0,0,0,0.1-0.1,0.1
		c-1.2,1.4-3,3.2-5.1,5.3c-4.5,4.6-10.1,10.2-12.1,14.1c0,0.1-0.1,0.1-0.2,0.2c-0.9,0.6-2.4,1-4.1,1.5c-3.3,1-7.4,2.2-10.2,5.3
		c0,0.1-0.1,0.1-0.2,0.1c-0.3,0.6-0.8,1.3-1.4,1.9c-0.1,0.1-0.2,0.1-0.3,0.1c-0.1,0-0.2,0-0.3-0.1c-0.2-0.2-0.2-0.5,0-0.6
		c1.6-1.7,1.8-3.2,1.9-3.8c0.2-1.2,0.1-2.5,0-3.8c0-0.3-0.1-0.7-0.1-1c-1.5,1.3-3.5,2.9-4.3,3.1c-1.2,0.2-2.9,0.2-3.1,0.2
		c-0.2,0-1.9,0-3.1-0.2c-0.9-0.1-2.8-1.7-4.3-3.1c0,0.3,0,0.7-0.1,1c-0.1,1.3-0.2,2.6,0,3.8c0.1,0.5,0.3,2.1,1.9,3.8
		c0.2,0.2,0.2,0.5,0,0.6c-0.1,0.1-0.2,0.1-0.3,0.1c-0.1,0-0.2,0-0.3-0.1c-0.6-0.7-1.1-1.3-1.4-1.9c-0.1,0-0.1-0.1-0.2-0.1
		c-2.8-3.1-6.9-4.3-10.2-5.3c-1.7-0.5-3.2-0.9-4.1-1.5c-0.1,0-0.1-0.1-0.1-0.2c-2.1-3.9-7.6-9.5-12.1-14.1c-2.1-2.1-3.9-4-5.1-5.3
		c0,0-0.1-0.1-0.1-0.1c-4.9-10.7-10.6-17.4-18.4-24.8c-2.6-2.5-4.6-5-5.8-7.4c-0.8-1.6-1.7-3.9-2.1-5.7c0-0.1,0-0.2,0.1-0.3
		c0.1-0.1,1.9-3.3-0.4-6.6c-0.1-0.2-0.4-0.5-0.6-0.8c-0.7-0.9-1.8-2.1-2.3-3.7c-0.5-1.5-1.1-2-1.9-2.1c0.4,0.8,0.8,1.7,1.4,2.8
		c0.1,0.2,0,0.5-0.2,0.6c-0.2,0.1-0.5,0.1-0.6-0.2c-1.6-2.8-2.2-4.5-2.7-6.1l-0.2-0.7c-0.8-2.5-1.9-4.1-2.7-4.3c-0.2,0-0.3,0-0.3,0
		c-0.1,0.1-0.4,0.7-0.3,2.8c0,0.3,0,0.6,0.1,1c0.8-0.1,2.1-0.1,2.5,1.2c0.9,2.9,1.5,6.9,1.6,7.2c0.5,0.5,2.2,1.6,3.7,3.1
		c1.6,1.6,1.2,4,1.2,4.3c0,0.3-0.5,0.4-0.5-0.1c0-0.5-0.5-1.6-1.3-2.5c-0.8-1-3.5-3.6-4-4.1c-0.5-0.5-1.5-5.8-2-7.4
		c-0.2-0.6-0.6-0.8-1-0.6c0.3,3.6,1.1,9,1.5,10.3c0.7,2.2,4,9.9,5.5,13.3c0.3,0.7,0.5,1.3,0.6,1.4
		C210.6,254.4,222.5,276.3,229.5,282z M279.5,309.8c2.1-2.3,6.1-2.8,8.5-3.1c0.6-0.1,0.6,0.8,0.1,0.9c-3.8,0.7-6,2.2-7.6,3.5
		C279.6,311.8,278.8,310.6,279.5,309.8z M279,341.8c4,0.9,3.5,5.9,5.8,9.3c0,0,0,0,0,0c0.3,0.5,0.7,0.9,1.2,1.3c0,0,0,0,0,0
		c0.2,0.1,0.2,0.4,0.1,0.6c0,0,0,0,0,0c-0.1,0.2-0.4,0.3-0.6,0.1c-3.3-2.2-4-6.5-5.2-8.9c-0.3-0.4-0.5-0.8-0.7-1.1
		c-0.2-0.2-0.5-0.4-0.7-0.5C278.1,342.5,278.4,341.7,279,341.8z M272.9,341.8c0.6-0.1,0.9,0.6,0.3,0.9c-0.3,0.1-0.5,0.3-0.7,0.5
		c-0.2,0.3-0.5,0.7-0.7,1.1c-1.2,2.4-1.9,6.7-5.2,8.9c-0.3,0.2-0.5,0.1-0.6-0.1c0,0,0,0,0,0c-0.1-0.2-0.1-0.4,0.1-0.6c0,0,0,0,0,0
		c0.5-0.4,0.8-0.8,1.2-1.3c0,0,0,0,0,0C269.5,347.7,269,342.7,272.9,341.8z M263.9,306.7c2.4,0.3,6.5,0.8,8.5,3.1
		c0.7,0.8-0.1,2.1-1,1.3c-1.6-1.2-3.8-2.7-7.6-3.5C263.3,307.5,263.3,306.6,263.9,306.7z"/>
	<path class="st0" d="M273,295.6c0.6,0.5,2.1,0.6,3,0.6h0h0c0.9,0,2.4-0.1,3-0.6c0.6-0.5,4.3-4.1,5.7-7.8c1.1-2.9,2-9,2.3-12.3
		c0-0.6,0.1-1.2,0.1-1.8c0.1-3.6-0.8-6.4-2.8-8.5c-2-2-4.9-3.2-8.3-3.2h0h0h0c-3.4,0-6.3,1.1-8.3,3.2c-2,2.1-2.9,4.9-2.8,8.5
		c0,0.6,0.1,1.3,0.1,1.8c0.3,3.3,1.3,9.4,2.3,12.3C268.7,291.5,272.3,295.1,273,295.6z M273.4,278.6c-0.2,0.2-1,0.8-1.4,0.9
		c-0.9,0.2-2.2,0.1-2.7-0.2c-0.4-0.2-1.1-0.7-1.1-1.6c0-0.2,1.7-0.8,4.2-0.3C272.8,277.4,273.6,278.4,273.4,278.6z M277.2,277.5
		c0.1-0.7,0.1-1.7,0.2-2.1c0,0,0,0,0-0.1l0,0c0,0,0-0.1,0.1-0.1c0,0,0,0,0,0c2.2-0.8,5.5-0.7,6-0.6c0.5,0.1,1.6,0.8,2.1,1.1
		c0.3,0.2,0,1-0.7,0.7c-0.4-0.2-1.2-0.4-2-0.5c-0.9,0-1.8,0.1-2.8,0.2c-0.8,0.1-1,1.2-0.7,1.2h0c0,0,0.1,0,0.1,0
		c2.5-0.5,4.2,0.1,4.2,0.3c0,1-0.7,1.4-1.1,1.6c-0.5,0.2-1.8,0.4-2.7,0.2c-0.1,0-0.1-0.1-0.2-0.1c-0.8-0.3-1.2-0.4-1.4-0.3
		c-0.2,0.1-0.2,1.4-0.2,1.8c0,0.3-0.7,1.2-0.8,0.7C277.3,280.7,277.2,277.8,277.2,277.5z M276,285.2c0.5,0,1.1-0.3,1.7-0.3
		c0.6,0,1.1,0.6,0.5,0.8c-0.6,0.2-1.5,0.7-2.2,0.7l0,0c0,0,0,0,0,0l0,0v0c-0.7,0-1.5-0.5-2.2-0.7c-0.6-0.2-0.1-0.8,0.5-0.8
		C274.8,284.9,275.5,285.2,276,285.2z M266.3,275.8c0.5-0.4,1.6-1,2.1-1.1c0.5-0.1,3.8-0.2,6,0.6c0.5,0.2-0.2,1.5-0.5,1.4
		c-1.4-0.3-3.4-0.7-4.9-0.6c-0.8,0-1.6,0.3-2,0.5C266.3,276.8,266.1,276,266.3,275.8z"/>
	<path class="st0" d="M294.7,532.7c7.7-3.9,14.8-4.1,21.5-2v-54.4c-5.5-2.3-11.4-2.9-16.8,1c-1.8,14-8.7,26.5-8,33.3
		C292.1,518.4,295.6,526.4,294.7,532.7z"/>
	<path class="st0" d="M257.2,532.7c-0.9-6.3,2.6-14.3,3.4-22.1c0.7-6.8-6.2-19.3-8-33.3c-5.4-3.9-11.3-3.3-16.8-1v54.4
		C242.4,528.6,249.5,528.7,257.2,532.7z"/>
	<path d="M494.1,241.4c8.5-0.9,18.7,3.4,20.5,11.9c0.4,1.9,3.6,2.3,4.3,0.4c3.8-10.1,2.6-25.9-7.2-35.3c6.9-13.4,6.1-25.1,1.9-33.4
		c-1.4-3-4-5.4-7.3-6.5V33.5H45.7v145.1c-3.3,1.2-5.9,3.5-7.3,6.5c-4.3,8.2-5.1,19.9,1.9,33.4c-9.8,9.4-11,25.2-7.2,35.3
		c0.7,1.9,3.9,1.4,4.3-0.4c1.8-8.4,12-12.8,20.5-11.9c3.2,0.3,13.5,6,13.5,17.8c0,10.2-8.5,26.2-17.7,45.9c-0.3,0.7-0.6,1.4-1,2.1
		c-0.6,1.4-1.3,2.8-1.9,4.2c-0.3,0.7-0.6,1.4-1,2.1c-9.9,22.1-19.3,48.2-18.7,75.6c0.6,29.7,7.1,60.2,13.5,77.5
		c-5.4,4.2-8.3,10.3-9.5,15l0,0c-0.3,1-0.4,2.2-0.5,3.6c-0.2,4,2.3,9.1,4.8,10.6c0.9,0.6,1.8,0.1,2.1-0.4
		c3.9-7.1,10.3-11.5,14.9-13.1c15.1,6.7,23.2,19.5,22.4,40.8c-2.9,84.9,1.3,111,47.8,146.4c16.1,12.2,53.8,28.3,85.8,24.7
		c0,2.6,1.2,5.4,3.9,7.4c13.1,9.3,34.3,17.9,59.6,17.9h0c25.2,0,46.5-8.6,59.6-17.9c2.8-2,3.9-4.7,3.9-7.4
		c32,3.6,69.7-12.5,85.8-24.7c46.5-35.4,50.8-61.5,47.8-146.4c-0.7-21.3,7.4-34.1,22.4-40.8c4.6,1.6,11,6.1,14.9,13.1
		c0.2,0.5,1.2,1,2.1,0.4c2.4-1.6,5-6.6,4.8-10.6c0-1.3-0.2-2.5-0.5-3.6l0,0c-1.2-4.7-4.1-10.7-9.5-15c6.4-17.4,12.8-47.9,13.5-77.5
		c1.2-56.5-40.2-107.4-40.2-129.9C480.6,247.5,490.9,241.8,494.1,241.4z M75.9,259.2c0-12.3-9.1-21.4-17.6-22.3
		c-8.1-0.8-16.8,1.6-21.7,7.9c-0.2-1.9-0.1-3.9,0.2-6.1c4.9-4.1,14.5-6.1,23.1-5.1c1.3,0.1,1.4-1.8,0.2-2
		c-5.7-1.1-15.6-1.1-22.3,1.9c0.5-1.7,1.1-3.5,1.8-5.1c4-1,12.7-2.4,23.4,0c1.1,0.3,1.5-1.7,0.4-2c-9.2-2.7-16.8-2.8-21.5-2.4
		c0.9-1.5,1.9-2.9,2.9-4c0.5-0.5,0.6-1.2,0.4-1.9c-0.3-0.8-0.6-1.7-0.9-2.5c5.1,1.7,13.9,4.3,19.6,7.7c1,0.6,2.1-0.9,0.9-1.8
		c-4.4-3.6-16.6-8.4-22.2-11.2c-0.3-1-0.6-2.1-0.8-3.1c6.2,3.4,15.7,6.4,19.4,8.9c1.4,0.9,2.2-0.7,1.2-1.5
		c-5.2-4.3-17.3-8.5-21.6-12.8c-0.1-1.1-0.2-2.3-0.2-3.5c1.6,1.8,3.9,3.4,7,4.5c19.1,7,47.4,33.8,47.4,78.8l0,98.7
		c-3.6-4.7-10.3-10.2-22.5-15.6c-1.2-0.5-2.4-0.2-3.3,0.6c-6.6,5.4-12.5,10.9-17.7,17.2c-0.6,0.5,0.3,2,1.2,1.4
		c6.3-5.6,13.1-11.1,19.3-14.2c6.6,3,23.1,12,23.1,24.4l0,27.3c-0.1,12.7-4.7,25.7-12.6,36.3l-8.5-12.3l9.9-8.1
		c1.5-1.2,2-3.1,1.3-5.2c-1-3-3.6-7.9-5.9-10.5c-1.7-2-4.5-2.4-6.5-1l-6.2,4.6c-1.9,1.3-2.4,3.8-1.3,5.8l1.8,3.1l-20.5,16
		c-3.8-14.3-9.6-41.1-9.6-61.2C36.9,336.2,76,285.4,75.9,259.2z M69.5,429.1l5.7-4c1.5,1.8,3.8,6.4,4.4,8.2l-30.9,24.6
		c-0.3-0.8-0.6-1.8-0.9-3l25.1-19.6L69.5,429.1z M70.3,448.4l9.1,13.1c-1.1,1.2-2.2,2.4-3.3,3.5c-9.5-3.6-18.4-3.9-24.3-2.4
		L70.3,448.4z M40.9,488.7c-0.4,0.4-0.7,0.8-1.1,1.2c-1.4-2.4-1-5.4,0.2-7.5c1.3-2.3,7-3.6,13.2-1.4C48.2,482.4,44.2,485,40.9,488.7
		z M155.5,625.4c0,0-17.3,4.4-23.1,5.8c-0.5,0.1-1.5,1.2-1.6,1.6c-2.5,9.1-2,23.5,0.8,32c-0.4-0.3-0.8-0.6-1.2-0.8
		c-46-33.5-49.2-66-46.5-141c1.5-27.5-13-39.9-27.9-46c-3.9-1.6-8-2.5-11.6-2.3c1.3-1.4,2.8-2.7,4.5-3.8c7.1,0.2,18.7,5.4,26.9,15.3
		c0.9,0.9,2.2-0.5,1.5-1.3c-5.5-7.4-14.9-14.7-21.8-16.7c2.1-0.5,4.4-0.8,6.9-0.7c7.5,3.7,14.6,10.7,18.9,18.6
		c0.6,1,2.3,0.3,1.8-0.9c-2.6-6-7.5-12.5-12-16.6c2,0.4,4,1,6.2,1.8c1.3-1.2,2.5-2.4,3.7-3.6c1.2,6.6,3,13.6,4.5,17.4
		c0.4,1.1,2.2,0.8,1.9-0.5c-1.7-7.3-2.8-15.4-2.9-20.7c1.2-1.4,2.4-2.8,3.5-4.2c-0.1,6.9,0.5,15.2,1.5,19.4c0.3,1.3,2.1,1.1,2-0.4
		l0,0c-0.7-3.2-0.4-20.7,1.1-26c0.9-1.6,1.7-3.2,2.4-4.9l0,27.6c0,39.9,12.7,77.6,36.6,109.2c21.9,28.9,51.8,50.3,86.8,62.4
		l-15.7,11.7l-2.5-2.6c-1.6-1.6-4.2-1.7-6-0.3l-6.1,4.8c-1.8,1.5-2.2,4.3-0.8,6.5c1.9,2.8,5.3,7,7.8,8.8c1.8,1.2,3.8,1.2,5.4,0.1
		l3.1-2.3c2.3,4.4,7.7,14.8,8,15.3c-27,1.8-50.9-6.3-67.9-15.6c-11.2-6.6-9.9-31.5-8.5-36.8l20.7-8.5
		C157,626.8,156.4,625.2,155.5,625.4z M223.7,647.7c0.9,0.3,2.3,0.7,3.4,1L198,670c-1.7-1.5-4.7-4.9-6-6.8l5.3-4.5l4.8,4.8
		L223.7,647.7z M207.5,669.9l24.8-18.7l6.1,11c-3.6,3.9-17.1,18.5-22,23.7C214.6,682.8,209.4,673.4,207.5,669.9z M332.4,697
		c-1.1,0.7-2.3,1.4-3.6,2.2c-0.1,0-0.1,0.1-0.2,0.1c-3.1,1.7-5.8-0.4-7.9-2.9l-15-18.6c-1.3-1.5-4.1,0.3-3.1,2.1l11,20.1
		c0,0.1,0,0.2,0.1,0.2c1.4,2.7,0.7,5.8-1.6,6.6c-1.4,0.5-2.8,0.9-4.3,1.3c-3.7,1-5.9-0.6-7.7-4.4l-9.1-19c-0.9-2-4.1-0.9-3.6,1.3
		l5.2,19.8c0.8,2.9,0.2,5.2-2.7,5.5c-1.6,0.2-3.2,0.3-4.9,0.4c-3,0.2-4.5-2-5-4.9l-2-19.2c-0.1-0.9-1-1.7-1.9-1.7h0
		c-0.9,0-1.8,0.8-1.9,1.7l-2,19.2c-0.5,2.9-2,5-5,4.9c-1.7-0.1-3.3-0.2-4.9-0.4c-2.9-0.3-3.5-2.6-2.7-5.5l5.2-19.8
		c0.5-2.2-2.6-3.3-3.6-1.3l-9.1,19c-1.9,3.8-4,5.4-7.7,4.4c-1.5-0.4-3-0.9-4.3-1.3c-2.3-0.8-3-3.9-1.6-6.6c0-0.1,0.1-0.2,0.1-0.2
		l11-20.1c0.9-1.9-1.9-3.6-3.2-2.1l-15,18.6c-2.1,2.5-4.9,4.6-7.9,2.9c-0.1,0-0.1-0.1-0.2-0.1c-1.3-0.8-2.5-1.5-3.6-2.2
		c-1.8-1.2-1.9-4,0-6.8c0.4-0.6,23.3-27.4,23.3-27.4l-5.6-11.5c5.7,1.2,13.4,2.5,18.3,3l1.4,4.7c0.2,0.5-0.3,1.1-0.8,1
		c-1.2-0.1-2.4-0.3-3.4-0.4c-0.4-0.1-0.7-0.3-0.9-0.7l-0.9-2.5c-0.4-0.8-2.2-0.7-2.2,0.4l0,4.6c0,1.3,1,2.3,2.2,2.5l6.8,0.8
		c3.2,0.4,4.9-2.4,4-5.4l-2-6.6c-0.5-1.6-1.8-2.7-3.5-2.8c-6.6-0.6-19.9-3.1-24.1-4.3C152.9,623.8,99.5,555,99.5,474.4l0-52.2
		c0-0.3,0-0.6,0-1h0l0-139.5c0-42.3-25.4-73.8-50.4-83c-6.2-2.3-7.7-6.5-7.2-9.8c0,0,0-0.1,0-0.1c0.2-0.6,0.4-1.3,0.7-1.9
		c0.7-1.5,2-2.8,3.7-3.7c0.5,3.5,1.4,10.3,1.4,10.3c0.1,0.8,0.9,1.4,1.7,1.3c0.7-0.1,1.3-0.7,1.3-1.4v-15.1v-0.5h0V38.4h450.8v139.4
		h0v0.5v15.1c0,0.7,0.5,1.3,1.3,1.4c0.8,0.1,1.6-0.5,1.7-1.3c0,0,0.9-6.7,1.4-10.3c1.7,0.9,3,2.2,3.7,3.7c0.2,0.6,0.5,1.3,0.6,1.9
		c0,0,0,0.1,0,0.1c0.6,3.2-1,7.5-7.2,9.8c-25.1,9.2-50.4,40.7-50.4,83l0,139.5h0c0,0.3,0,0.6,0,1l0,52.2
		c0,80.6-53.3,149.4-132.7,171.1c-4.2,1.2-17.4,3.7-24.1,4.3c-1.6,0.1-3,1.2-3.5,2.8l-2,6.6c-0.9,3,0.8,5.9,4,5.4l6.8-0.8
		c1.3-0.2,2.2-1.2,2.2-2.5l0-4.6c0-1.1-1.8-1.2-2.2-0.4l-0.9,2.5c-0.1,0.4-0.5,0.6-0.9,0.7c-1,0.1-2.1,0.3-3.4,0.4
		c-0.6,0.1-1-0.5-0.8-1l1.4-4.7c4.9-0.4,12.6-1.8,18.3-3l-5.6,11.5c0,0,22.9,26.8,23.3,27.4C334.3,693.1,334.2,695.9,332.4,697z
		 M328.3,647.7l21.6,15.9l4.8-4.8l5.3,4.5c-1.4,1.9-4.4,5.3-6,6.8l-29.1-21.3C325.9,648.4,327.3,648,328.3,647.7z M335.5,686
		c-4.9-5.3-18.4-19.9-22-23.7l6.1-11l24.8,18.7C342.6,673.4,337.3,682.8,335.5,686z M468.1,523c2.7,75-0.5,107.6-46.5,141
		c-0.4,0.3-0.8,0.6-1.2,0.8c2.8-8.5,3.3-22.9,0.8-32h0c-0.2-0.4-1.1-1.5-1.6-1.6c-5.8-1.5-23.1-5.8-23.1-5.8c-1-0.2-1.5,1.4-0.6,1.7
		l20.7,8.5c1.4,5.3,2.7,30.3-8.5,36.8c-17,9.3-40.9,17.4-67.9,15.6c0.3-0.4,5.7-10.9,8-15.3l3.1,2.3c1.5,1.1,3.5,1.1,5.4-0.1
		c2.6-1.8,6-6,7.8-8.8c1.5-2.2,1.1-5-0.8-6.5l-6.1-4.8c-1.8-1.4-4.3-1.3-6,0.3l-2.5,2.6L333.5,646c35-12.1,64.9-33.5,86.8-62.4
		c24-31.5,36.6-69.3,36.6-109.2l0-27.6c0.7,1.7,1.5,3.3,2.4,4.9c1.5,5.3,1.8,22.7,1.1,26l0,0c-0.2,1.5,1.7,1.7,2,0.4
		c1-4.2,1.6-12.5,1.5-19.4c1.1,1.4,2.2,2.8,3.5,4.2c-0.1,5.3-1.2,13.5-2.9,20.7c-0.3,1.2,1.5,1.6,2,0.5c1.5-3.8,3.3-10.9,4.5-17.4
		c1.2,1.2,2.4,2.4,3.7,3.6c2.2-0.7,4.3-1.3,6.2-1.8c-4.6,4.1-9.4,10.6-12,16.6c-0.5,1.2,1.2,1.9,1.8,0.9
		c4.3-7.9,11.4-14.9,18.9-18.6c2.6,0,4.9,0.2,6.9,0.7c-6.9,2.1-16.3,9.3-21.8,16.7c-0.6,0.8,0.7,2.2,1.5,1.3
		c8.1-9.9,19.8-15.1,26.9-15.3c1.8,1.1,3.3,2.4,4.5,3.8c-3.6-0.2-7.7,0.7-11.6,2.3C481.1,483.1,466.6,495.5,468.1,523z M504.2,455
		c-0.3,1.2-0.6,2.2-0.9,3l-30.9-24.6c0.6-1.8,2.9-6.4,4.4-8.2l5.7,4l-3.4,6.3L504.2,455z M500.3,462.7c-5.8-1.5-14.9-1.3-24.4,2.3
		c-1.2-1.1-2.2-2.3-3.3-3.5l9.1-13.1L500.3,462.7z M511.9,482.4c1.2,2.1,1.6,5.2,0.2,7.5c-0.3-0.4-0.7-0.8-1-1.2
		c-3.3-3.7-7.3-6.3-12.3-7.7C505,478.8,510.6,480.1,511.9,482.4z M505.5,450.2l-20.5-16l1.8-3.1c1.1-2,0.5-4.5-1.3-5.8l-6.2-4.6
		c-1.9-1.4-4.7-1-6.5,1c-2.2,2.5-4.8,7.5-5.9,10.5c-0.7,2.1-0.2,4,1.3,5.2l9.9,8.1l-8.5,12.3c-7.9-10.6-12.6-23.6-12.6-36.3l0-27.3
		c0-12.4,16.5-21.4,23.1-24.4c6.2,3,13,8.5,19.3,14.2c0.9,0.6,1.8-0.9,1.2-1.4c-5.2-6.3-11.1-11.8-17.7-17.2c-1-0.8-2.1-1.2-3.3-0.6
		c-12.2,5.4-18.9,10.9-22.5,15.6l0-98.7c0-45,28.4-71.8,47.5-78.8c3.1-1.1,5.4-2.7,7-4.5c0,1.2-0.1,2.3-0.2,3.5
		c-4.3,4.3-16.4,8.5-21.6,12.8c-1,0.8-0.2,2.5,1.2,1.5c3.8-2.5,13.2-5.5,19.4-8.9c-0.2,1-0.5,2.1-0.8,3.1
		c-5.6,2.8-17.8,7.6-22.2,11.2c-1.2,1-0.1,2.4,0.9,1.8c5.7-3.4,14.4-5.9,19.6-7.7c-0.3,0.8-0.6,1.7-0.9,2.5
		c-0.2,0.7-0.1,1.4,0.4,1.9c1.1,1.1,2,2.5,2.9,4c-4.8-0.5-12.4-0.3-21.5,2.4c-1.1,0.3-0.7,2.2,0.4,2c10.7-2.4,19.4-1,23.4,0
		c0.7,1.6,1.3,3.4,1.8,5.1c-6.7-3-16.6-3-22.3-1.9c-1.2,0.2-1.1,2.1,0.2,2c8.7-1,18.2,1,23.1,5.1c0.3,2.1,0.4,4.2,0.2,6.1
		c-4.9-6.3-13.6-8.8-21.7-7.9c-8.5,0.9-17.6,9.9-17.6,22.3c-0.1,26.2,39,77,39,129.8C515.1,409.2,509.3,436,505.5,450.2z"/>
	<path d="M57.6,414.8c4.5,0,8.1-3.6,8.1-8.1c0-4.5-3.6-8.1-8.1-8.1c-4.5,0-8.1,3.6-8.1,8.1C49.5,411.2,53.1,414.8,57.6,414.8z
		 M57.6,403.2c2,0,3.5,1.6,3.5,3.5c0,1.9-1.6,3.5-3.5,3.5c-1.9,0-3.5-1.6-3.5-3.5C54,404.8,55.6,403.2,57.6,403.2z"/>
	<path d="M378.5,637.4c-4.5,0-8.1,3.6-8.1,8.1c0,4.5,3.6,8.1,8.1,8.1s8.1-3.6,8.1-8.1C386.6,641.1,382.9,637.4,378.5,637.4z
		 M378.5,649.1c-1.9,0-3.5-1.6-3.5-3.5c0-1.9,1.6-3.5,3.5-3.5c2,0,3.5,1.6,3.5,3.5C382,647.5,380.4,649.1,378.5,649.1z"/>
	<path d="M444.4,567.5c-5.7,14.6-18.3,32-27.3,41.2c-1.1,1.2,0.2,2.9,1.4,1.9c7.3-5.8,21.8-21.7,28.2-33.6c0.4,1.8,0.7,3.7,0.9,5.5
		c-5.8,9.2-14.8,21.1-19.4,26.3c-0.7,0.8,0.6,2.2,1.4,1.3c6.9-7.4,12.4-14.1,18.4-21.9c0.1,2.1,0.1,4.1-0.1,6.1
		c-5.4,9-10.1,14.1-15,19.6c-0.7,0.8,0.6,2.1,1.4,1.3c3.3-3,8.2-7.9,12.4-12.8c-2.2,10-7.3,18.3-14.5,23.6c-1.2,0.9,0.1,2.6,1.4,1.7
		c15.9-11.2,24.9-34.1,16.9-60.2C449.6,563.5,445.7,564.3,444.4,567.5z"/>
	<path d="M62.5,354.2c1.2-15.5,4.7-33.2,9.6-47.9c1.1,1.7,2.1,3.4,3,5.2c-3.8,11.1-5.9,27-5.9,36.5c0,1.3,1.9,1.2,2-0.1
		c0.3-8.6,3.1-20.8,6.4-31c1.1,2.7,2,5.6,2.8,8.5c-2.1,6.5-4.3,15.3-4.9,23.7c-0.1,1.3,1.8,1.4,1.9,0.2c0.7-6.4,2.4-12.4,4.2-17.8
		c1.4,8.7,1.3,17.9-0.5,27.1c-0.3,1.6,1.6,1.8,1.9,0.8c6.8-21.8,2.2-45.5-9.9-60.1c-1.2-1.4-3.3-1.3-3.9,0.7
		c-5.4,17.7-8,38.2-8.6,53.9C60.6,355.3,62.4,355.4,62.5,354.2z"/>
	<path d="M78.6,173.7c0-2-2.8-2.2-2.8-0.2c0,2.3-0.1,9.4-0.1,11.3c-0.1,12.6,0,15.6,3.3,21.6c2.5,4.6,13.9,17.9,16.4,29.2
		c0.4,1.7,4.1,2,4.1,0v-23.2c0-11.7-6.3-17.8-9.7-21.4C84.8,185.9,78.6,179.9,78.6,173.7z M94.6,221.5c-2-4.2-10-14.6-12-19.6
		c-2.1-5.2-2.5-8.6-2.6-15.8c1.6,3.7,8.3,10.8,9.8,12.9c2.6,3.6,3.9,7.2,4.5,14.3C94.5,215.3,94.5,218.7,94.6,221.5z"/>
	<path d="M285.5,650.6c-3.1,0.2-6.1,0.2-9.5,0.2c-3.4,0-6.4,0-9.5-0.2c-0.7,0-1.3,0.6-1.1,1.3l2.5,11.9c0.2,1,1.1,1.6,2.1,1.8
		c1.7,0.3,3.7,0.4,6,0.4h0c2.3,0,4.3-0.1,6-0.4c1-0.2,1.9-0.8,2.1-1.8l2.5-11.9C286.7,651.2,286.2,650.6,285.5,650.6z"/>
	<path d="M478.8,299.5c-12.1,14.6-16.7,38.3-9.9,60.1c0.3,1,2.2,0.8,1.9-0.8c-1.8-9.2-1.9-18.4-0.5-27.1c1.9,5.4,3.5,11.4,4.2,17.8
		c0.1,1.2,2,1.1,1.9-0.2c-0.6-8.5-2.8-17.2-4.9-23.7c0.7-2.9,1.7-5.8,2.8-8.5c3.3,10.1,6.1,22.4,6.4,31c0.1,1.3,2,1.3,2,0.1
		c0-9.5-2.1-25.4-5.9-36.5c0.9-1.8,1.9-3.6,3-5.2c4.9,14.7,8.3,32.4,9.6,47.9c0.1,1.2,1.9,1.2,1.9-0.1c-0.6-15.7-3.2-36.2-8.6-53.9
		C482.1,298.2,479.9,298.1,478.8,299.5z"/>
	<path d="M173.5,653.6c4.5,0,8.1-3.6,8.1-8.1c0-4.5-3.6-8.1-8.1-8.1s-8.1,3.6-8.1,8.1C165.4,650,169,653.6,173.5,653.6z M173.5,642
		c2,0,3.5,1.6,3.5,3.5c0,1.9-1.6,3.5-3.5,3.5c-1.9,0-3.5-1.6-3.5-3.5C169.9,643.6,171.5,642,173.5,642z"/>
	<path d="M494.4,398.7c-4.5,0-8.1,3.6-8.1,8.1c0,4.5,3.6,8.1,8.1,8.1c4.4,0,8.1-3.6,8.1-8.1C502.5,402.3,498.8,398.7,494.4,398.7z
		 M494.4,410.3c-2,0-3.5-1.6-3.5-3.5c0-1.9,1.6-3.5,3.5-3.5c2,0,3.5,1.6,3.5,3.5C497.9,408.7,496.3,410.3,494.4,410.3z"/>
	<path d="M476.1,173.5c0-2-2.7-1.8-2.7,0.2c0,6.2-6.2,12.2-11.2,17.3c-3.5,3.6-9.7,9.7-9.7,21.4v23.2c0,2,3.8,1.7,4.1,0
		c2.5-11.3,13.9-24.6,16.4-29.2c3.3-6,3.3-9,3.3-21.6C476.2,183,476.1,175.8,476.1,173.5z M469.4,201.9c-2,5-10,15.4-12,19.6
		c0-2.7,0.1-6.2,0.3-8.2c0.5-7,1.9-10.6,4.5-14.3c1.5-2.1,8.2-9.2,9.8-12.9C471.9,193.3,471.5,196.7,469.4,201.9z"/>
	<path d="M107.5,567.5c-1.3-3.2-5.2-4-6.4,0c-7.9,26.1,1.1,49,16.9,60.2c1.3,0.9,2.5-0.9,1.4-1.7c-7.2-5.3-12.2-13.6-14.5-23.6
		c4.2,4.9,9,9.8,12.4,12.8c0.9,0.8,2.2-0.5,1.4-1.3c-4.9-5.5-9.5-10.6-15-19.6c-0.1-2-0.2-4-0.1-6.1c6,7.8,11.5,14.5,18.4,21.9
		c0.8,0.9,2.2-0.5,1.4-1.3c-4.6-5.2-13.6-17.1-19.4-26.3c0.2-1.8,0.5-3.6,0.9-5.5c6.4,11.9,20.9,27.8,28.2,33.6
		c1.2,1,2.6-0.8,1.4-1.9C125.8,599.4,113.3,582.1,107.5,567.5z"/>
	<path d="M115.5,78.1c0-3.3-1.7-6.2-5.5-6.2h-5.3v19.5h3.7v-7.2h1.6C113.8,84.3,115.5,81.4,115.5,78.1z M108.4,81v-5.9h1.2
		c1.4,0,2.1,1.2,2.1,2.9c0,1.8-0.7,2.9-2.1,2.9H108.4z"/>
	<path d="M117,81.7c0,5.7,1.8,10.1,6.1,10.1c4.3,0,6.1-4.4,6.1-10.1c0-5.7-1.8-10.1-6.1-10.1C118.8,71.6,117,75.9,117,81.7z
		 M125.4,81.7c0,3.8-0.6,6.8-2.3,6.8c-1.8,0-2.3-3-2.3-6.8c0-3.9,0.6-6.8,2.3-6.8C124.9,74.9,125.4,77.8,125.4,81.7z"/>
	<path d="M142.4,78c0-3.6-2.2-6.1-5.3-6.1h-5.4v19.5h3.7v-7.2h1.2l2.1,7.2h4l-2.7-8.1C141,82.8,142.4,81.3,142.4,78z M136.5,81h-1.2
		v-5.9h1.2c1.4,0,2.1,1.2,2.1,2.9C138.7,79.8,137.9,81,136.5,81z"/>
	<polygon points="149.8,71.9 149.8,91.4 158.4,91.4 158.4,88.2 153.5,88.2 153.5,71.9 	"/>
	<path d="M159,91.4h3.8l0.6-3.6h3.7l0.6,3.6h3.8l-4.1-19.5h-4.2L159,91.4z M165.2,76l1.4,8.6h-2.8L165.2,76z"/>
	<path d="M188.4,78c0-3.6-2.2-6.1-5.3-6.1h-5.4v19.5h3.7v-7.2h1.2l2.1,7.2h4l-2.7-8.1C187,82.8,188.4,81.3,188.4,78z M182.5,81h-1.2
		v-5.9h1.2c1.4,0,2.1,1.2,2.1,2.9C184.7,79.8,183.9,81,182.5,81z"/>
	<polygon points="199.7,75.2 199.7,71.9 191.1,71.9 191.1,91.4 199.7,91.4 199.7,88.2 194.8,88.2 194.8,83.1 199.5,83.1 199.5,79.9 
		194.8,79.9 194.8,75.2 	"/>
	<path d="M200.7,91.4h3.8l0.6-3.6h3.7l0.6,3.6h3.8L209,71.9h-4.2L200.7,91.4z M206.9,76l1.4,8.6h-2.8L206.9,76z"/>
	<polygon points="214.6,71.9 214.6,91.4 223.2,91.4 223.2,88.2 218.3,88.2 218.3,71.9 	"/>
	<rect x="225.3" y="71.9" width="3.7" height="19.5"/>
	<polygon points="231.4,91.4 240.7,91.4 240.7,88.2 235.5,88.2 240.5,74.9 240.5,71.9 231.4,71.9 231.4,75.2 236.3,75.2 231.4,88.3 
			"/>
	<path d="M241.6,91.4h3.8l0.6-3.6h3.7l0.6,3.6h3.8l-4.1-19.5h-4.2L241.6,91.4z M247.8,76l1.4,8.6h-2.8L247.8,76z"/>
	<path d="M261,74.9c1.1,0,1.6,0.9,2,2.4l3-1.1c-0.6-2.1-1.7-4.6-4.9-4.6c-4.3,0-6.1,4.3-6.1,10.1c0,5.8,1.8,10.1,6.1,10.1
		c3.3,0,4.4-2.8,4.9-5l-2.9-1.1c-0.3,1.6-0.8,2.8-2,2.8c-1.7,0-2.3-2.8-2.3-6.8C258.6,77.7,259.2,74.9,261,74.9z"/>
	<rect x="268.1" y="71.9" width="3.7" height="19.5"/>
	<polygon points="283.6,65.9 280.7,65.9 278.4,70.1 280.5,70.1 	"/>
	<path d="M274.1,81.7c0,5.7,1.8,10.1,6.1,10.1c4.3,0,6.1-4.4,6.1-10.1c0-5.7-1.8-10.1-6.1-10.1C276,71.6,274.1,75.9,274.1,81.7z
		 M280.3,74.9c1.7,0,2.3,2.9,2.3,6.8c0,3.8-0.6,6.8-2.3,6.8c-1.8,0-2.3-3-2.3-6.8C277.9,77.8,278.5,74.9,280.3,74.9z"/>
	<polygon points="292.5,71.9 288.8,71.9 288.8,91.4 292.5,91.4 292.5,80.2 296.5,91.4 299.9,91.4 299.9,71.9 296.2,71.9 296.2,82.7 
			"/>
	<path d="M307.7,71.9v19.5h3.7v-7.2h1.6c3.8,0,5.5-2.9,5.5-6.2c0-3.3-1.7-6.2-5.5-6.2H307.7z M314.7,78.1c0,1.8-0.7,2.9-2.1,2.9
		h-1.2v-5.9h1.2C313.9,75.2,314.7,76.3,314.7,78.1z"/>
	<polygon points="320.6,71.9 320.6,91.4 329.1,91.4 329.1,88.2 324.3,88.2 324.3,71.9 	"/>
	<polygon points="339.8,75.2 339.8,71.9 331.3,71.9 331.3,91.4 339.8,91.4 339.8,88.2 335,88.2 335,83.1 339.6,83.1 339.6,79.9 
		335,79.9 335,75.2 	"/>
	<polygon points="346.1,71.9 342.4,71.9 342.4,91.4 346.1,91.4 346.1,80.2 350,91.4 353.5,91.4 353.5,71.9 349.8,71.9 349.8,82.7 	
		"/>
	<path d="M355,91.4h3.8l0.6-3.6h3.7l0.6,3.6h3.8l-4.1-19.5h-4.2L355,91.4z M361.2,76l1.4,8.6h-2.8L361.2,76z"/>
	<path d="M373.7,71.9v19.5h4.9c4.7,0,6.6-4.1,6.6-9.8c0-5.6-1.9-9.8-6.6-9.8H373.7z M381.4,81.7c0,4.2-0.9,6.5-2.8,6.5h-1.2v-13h1.2
		C380.5,75.2,381.4,77.4,381.4,81.7z"/>
	<polygon points="396.1,75.2 396.1,71.9 387.6,71.9 387.6,91.4 396.1,91.4 396.1,88.2 391.3,88.2 391.3,83.1 395.9,83.1 395.9,79.9 
		391.3,79.9 391.3,75.2 	"/>
	<polygon points="398.7,71.9 398.7,91.4 407.2,91.4 407.2,88.2 402.4,88.2 402.4,71.9 	"/>
	<path d="M417.7,88.5c-1.1,0-2.4-0.5-3.2-1.6l-1.6,2.9c1.3,1.3,2.9,1.9,5,1.9c3.3,0,5.5-2.4,5.5-5.7c0-5.9-6.2-6.3-6.2-9.3
		c0-1.2,0.8-2,1.8-2c1,0,1.9,0.4,2.7,1.1l1.4-2.8c-1.1-1-2.6-1.6-4.2-1.6c-3.4,0-5.4,2.5-5.4,5.4c0,5.9,6.2,5.9,6.2,9.3
		C419.7,87.6,418.9,88.5,417.7,88.5z"/>
	<polygon points="434.2,75.2 434.2,71.9 425.7,71.9 425.7,91.4 434.2,91.4 434.2,88.2 429.4,88.2 429.4,83.1 434,83.1 434,79.9 
		429.4,79.9 429.4,75.2 	"/>
	<path d="M447.6,78c0-3.6-2.2-6.1-5.3-6.1h-5.4v19.5h3.7v-7.2h1.2l2.1,7.2h4l-2.7-8.1C446.2,82.8,447.6,81.3,447.6,78z M441.6,81
		h-1.2v-5.9h1.2c1.4,0,2.1,1.2,2.1,2.9C443.8,79.8,443,81,441.6,81z"/>
</g>
</svg>
